<svg width="32" height="210" viewBox="0 0 32 210" fill="none" xmlns="http://www.w3.org/2000/svg">
<path d="M11.818 4.312C11.818 2.086 12.924 0.7 14.884 0.406L15.36 2.338C14.184 2.534 13.512 3.318 13.512 4.438C13.512 5.334 13.932 5.838 14.59 5.838C15.43 5.838 15.654 4.914 15.962 3.864C16.382 2.45 16.914 0.77 18.916 0.77C20.526 0.77 21.646 2.156 21.646 4.242C21.646 5.936 20.862 7.574 18.818 7.91L18.37 6.09C19.532 5.894 19.994 5.11 19.994 4.242C19.994 3.332 19.588 2.772 18.972 2.772C18.258 2.772 18.02 3.57 17.726 4.69C17.334 6.118 16.69 7.868 14.828 7.868C12.966 7.868 11.818 6.664 11.818 4.312ZM11.818 15.0842C11.818 12.2562 13.82 10.2402 16.732 10.2402C19.644 10.2402 21.646 12.2562 21.646 15.0842C21.646 17.4642 20.232 19.2702 18.076 19.7602L17.572 17.8142C18.748 17.5902 19.784 16.6522 19.784 15.0842C19.784 13.4462 18.566 12.2562 16.732 12.2562C14.898 12.2562 13.68 13.4462 13.68 15.0842C13.68 16.3162 14.352 17.2682 15.444 17.6742L14.758 19.5642C12.952 18.8922 11.818 17.2262 11.818 15.0842ZM12 30.1222L12 27.8682L15.514 25.8802L15.514 24.3542L12 24.3542L12 22.3242L21.45 22.3242L21.45 26.5802C21.45 28.7082 20.582 30.0102 18.468 30.0102C16.872 30.0102 16.004 29.2542 15.668 27.9662L12 30.1222ZM19.686 26.5102L19.686 24.3542L17.278 24.3542L17.278 26.5102C17.278 27.5042 17.614 27.9942 18.468 27.9942C19.35 27.9942 19.686 27.4902 19.686 26.5102ZM11.818 37.1687C11.818 34.3407 13.82 32.3247 16.732 32.3247C19.644 32.3247 21.646 34.3407 21.646 37.1687C21.646 40.0107 19.644 42.0267 16.732 42.0267C13.82 42.0267 11.818 40.0107 11.818 37.1687ZM13.68 37.1687C13.68 38.8347 14.898 39.9967 16.732 39.9967C18.566 39.9967 19.784 38.8347 19.784 37.1687C19.784 35.5307 18.566 34.3407 16.732 34.3407C14.898 34.3407 13.68 35.5307 13.68 37.1687ZM12 51.2481L12 44.6821L21.45 44.6821L21.45 46.7121L13.778 46.7121L13.778 51.2481L12 51.2481ZM12 60.2327L12 53.6667L21.45 53.6667L21.45 55.6967L13.778 55.6967L13.778 60.2327L12 60.2327ZM12 71.0227L12 67.4527L21.45 67.4527L21.45 71.0227C21.45 74.3407 19.924 76.1187 16.732 76.1187C13.498 76.1187 12 74.3267 12 71.0227ZM19.686 69.4687L13.778 69.4687L13.778 71.0087C13.778 72.9827 14.758 74.0887 16.732 74.0887C18.734 74.0887 19.686 72.9407 19.686 71.0087L19.686 69.4687ZM11.818 83.2402C11.818 80.4122 13.82 78.3962 16.732 78.3962C19.644 78.3962 21.646 80.4122 21.646 83.2402C21.646 86.0822 19.644 88.0982 16.732 88.0982C13.82 88.0982 11.818 86.0822 11.818 83.2402ZM13.68 83.2402C13.68 84.9062 14.898 86.0682 16.732 86.0682C18.566 86.0682 19.784 84.9062 19.784 83.2402C19.784 81.6022 18.566 80.4122 16.732 80.4122C14.898 80.4122 13.68 81.6022 13.68 83.2402ZM14.086 99.2978L21.45 101.174L21.45 103.246L12 100.824L12 97.9258L18.09 96.5678L12 95.2098L12 92.3118L21.45 89.8758L21.45 91.9758L14.086 93.8378L21.45 95.4898L21.45 97.6458L14.086 99.2978ZM14.87 112.155L21.45 112.155L21.45 114.185L12 114.185L12 111.749L18.622 107.647L12 107.647L12 105.617L21.45 105.617L21.45 108.025L14.87 112.155Z" fill="white"/>
<path d="M16 136L16 208.842M16 208.842L1 193.986M16 208.842L31 193.986" stroke="white" stroke-opacity="0.5" stroke-width="2" stroke-linecap="round" stroke-linejoin="round"/>
</svg>
