<svg width="94" height="18" viewBox="0 0 94 18" fill="none" xmlns="http://www.w3.org/2000/svg">
<path d="M9.3913 -0.000976562L11.6083 6.87441H18.7826L12.9785 11.1236L15.1955 17.999L9.3913 13.7498L3.58716 17.999L5.80414 11.1236L0 6.87441H7.17432L9.3913 -0.000976562Z" fill="#FF9C2C"/>
<path d="M46.9565 -0.000976562L49.1735 6.87441H56.3478L50.5436 11.1236L52.7606 17.999L46.9565 13.7498L41.1523 17.999L43.3693 11.1236L37.5652 6.87441H44.7395L46.9565 -0.000976562Z" fill="#FF9C2C"/>
<path d="M28.174 -0.000976562L30.391 6.87441H37.5653L31.7612 11.1236L33.9782 17.999L28.174 13.7498L22.3699 17.999L24.5869 11.1236L18.7827 6.87441H25.957L28.174 -0.000976562Z" fill="#FF9C2C"/>
<path d="M65.7392 -0.000976562L67.9562 6.87441H75.1305L69.3264 11.1236L71.5434 17.999L65.7392 13.7498L59.9351 17.999L62.152 11.1236L56.3479 6.87441H63.5222L65.7392 -0.000976562Z" fill="#FF9C2C"/>
<path d="M84.5217 -0.000976562L86.7387 6.87441H93.913L88.1088 11.1236L90.3258 17.999L84.5217 13.7498L78.7175 17.999L80.9345 11.1236L75.1304 6.87441H82.3047L84.5217 -0.000976562Z" fill="#FF9C2C"/>
</svg>
