<svg width="18" height="17" viewBox="0 0 18 17" fill="none" xmlns="http://www.w3.org/2000/svg">
<path d="M1.3584 1.46937C1.3584 0.934011 1.7924 0.5 2.32768 0.5C2.86296 0.5 3.29696 0.934011 3.29696 1.46937C3.29696 2.00473 2.86296 2.43874 2.32768 2.43874C1.7924 2.43874 1.3584 2.00473 1.3584 1.46937ZM1.3584 8.49964C1.3584 7.96428 1.7924 7.53027 2.32768 7.53027C2.86296 7.53027 3.29696 7.96428 3.29696 8.49964C3.29696 9.035 2.86296 9.46901 2.32768 9.46901C1.7924 9.46901 1.3584 9.035 1.3584 8.49964ZM1.3584 15.5309C1.3584 14.9955 1.7924 14.5615 2.32768 14.5615C2.86296 14.5615 3.29696 14.9955 3.29696 15.5309C3.29696 16.0662 2.86296 16.5003 2.32768 16.5003C1.7924 16.5003 1.3584 16.0662 1.3584 15.5309ZM8.38912 1.46937C8.38912 0.93401 8.82312 0.5 9.3584 0.5C9.89368 0.5 10.3277 0.93401 10.3277 1.46937C10.3277 2.00473 9.89368 2.43874 9.3584 2.43874C8.82312 2.43874 8.38912 2.00473 8.38912 1.46937ZM8.38912 8.49964C8.38912 7.96428 8.82312 7.53027 9.3584 7.53027C9.89368 7.53027 10.3277 7.96428 10.3277 8.49964C10.3277 9.035 9.89368 9.46901 9.3584 9.46901C8.82312 9.46901 8.38912 9.035 8.38912 8.49964ZM8.38912 15.5309C8.38912 14.9955 8.82312 14.5615 9.3584 14.5615C9.89368 14.5615 10.3277 14.9955 10.3277 15.5309C10.3277 16.0662 9.89368 16.5003 9.3584 16.5003C8.82312 16.5003 8.38912 16.0662 8.38912 15.5309ZM15.4198 1.46937C15.4198 0.93401 15.8538 0.5 16.3891 0.5C16.9244 0.5 17.3584 0.93401 17.3584 1.46937C17.3584 2.00473 16.9244 2.43874 16.3891 2.43874C15.8538 2.43874 15.4198 2.00473 15.4198 1.46937ZM15.4198 8.49964C15.4198 7.96428 15.8538 7.53027 16.3891 7.53027C16.9244 7.53027 17.3584 7.96428 17.3584 8.49964C17.3584 9.035 16.9244 9.46901 16.3891 9.46901C15.8538 9.46901 15.4198 9.035 15.4198 8.49964ZM15.4198 15.5309C15.4198 14.9955 15.8538 14.5615 16.3891 14.5615C16.9244 14.5615 17.3584 14.9955 17.3584 15.5309C17.3584 16.0662 16.9244 16.5003 16.3891 16.5003C15.8538 16.5003 15.4198 16.0662 15.4198 15.5309Z" fill="white" stroke="white"/>
</svg>
