<svg width="80" height="63" viewBox="0 0 80 63" fill="none" xmlns="http://www.w3.org/2000/svg">
<path d="M34.1444 4.49107L31.2416 -0.000976562C11.1577 13.5866 0 30.0957 0 43.6832C0 56.8216 9.59743 62.999 17.7417 62.999C28.0068 62.999 35.2584 54.2377 35.2584 45.0309C35.2584 37.283 30.349 30.6563 23.7651 28.1839C21.8691 27.5083 20.0839 26.9477 20.0839 23.6919C20.0839 19.5376 23.0974 13.3637 34.1444 4.49107ZM78.4397 4.49107L75.5369 -0.000976562C55.6744 13.5866 44.2953 30.0957 44.2953 43.6832C44.2953 56.8216 54.1141 62.999 62.2583 62.999C72.6341 62.999 80 54.2377 80 45.0309C80 37.283 74.9799 30.6563 68.171 28.1839C66.2751 27.5083 64.6006 26.9477 64.6006 23.6919C64.6006 19.5376 67.7247 13.3602 78.4361 4.48747L78.4397 4.49107Z" fill="white"/>
</svg>
