<svg width="10" height="17" viewBox="0 0 10 17" fill="none" xmlns="http://www.w3.org/2000/svg">
<path d="M9.41699 0.618642V3.15678H7.79618C7.73964 3.14945 7.67381 3.14545 7.60726 3.14545C7.21941 3.14545 6.86591 3.28075 6.59756 3.50404L6.59899 3.50271C6.4022 3.75866 6.28485 4.07792 6.28485 4.42318C6.28485 4.46451 6.28628 4.50583 6.28985 4.54649V4.54116V6.35811H9.31609L8.91536 9.20419H6.29415V16.5H3.13338V9.20352H0.5V6.35811H3.13338V4.26188C3.12837 4.1939 3.12551 4.11391 3.12551 4.03393C3.12551 3.0488 3.53697 2.15299 4.2082 1.48779L4.20605 1.48979C4.90161 0.876588 5.84333 0.5 6.87879 0.5C6.94319 0.5 7.00759 0.501333 7.072 0.504666H7.06269C7.14713 0.503333 7.24589 0.502666 7.34535 0.502666C8.07526 0.502666 8.79443 0.545324 9.5 0.627973L9.41628 0.619975L9.41699 0.618642Z" fill="white"/>
</svg>
