<svg width="18" height="18" viewBox="0 0 18 18" fill="none" xmlns="http://www.w3.org/2000/svg">
<path d="M17 9C17 10.0506 16.7931 11.0909 16.391 12.0615C15.989 13.0321 15.3997 13.914 14.6569 14.6569C13.914 15.3997 13.0321 15.989 12.0615 16.391C11.0909 16.7931 10.0506 17 9 17C6.87827 17 4.84344 16.1571 3.34315 14.6569C1.84285 13.1566 1 11.1217 1 9C1 6.87827 1.84285 4.84344 3.34315 3.34315C4.84344 1.84285 6.87827 1 9 1C10.0506 1 11.0909 1.20693 12.0615 1.60896C13.0321 2.011 13.914 2.60028 14.6569 3.34315C15.3997 4.08601 15.989 4.96793 16.391 5.93853C16.7931 6.90914 17 7.94943 17 9ZM17 9C15.8329 9 12.6124 8.56 9.73067 9.82489C6.6 11.2 4.33333 13.3324 3.34489 14.6587M1.06222 8C2.57333 8.09067 6.57333 8.17333 9.13333 7.08C11.6933 5.98667 13.896 3.976 14.6516 3.33778M6 1.58133C7.25244 2.73689 9.984 5.67911 11 8.6C12.016 11.5209 12.392 15.112 12.624 16.1342" stroke="white" stroke-width="1.5" stroke-linecap="round" stroke-linejoin="round"/>
</svg>
