<svg width="17" height="17" viewBox="0 0 17 17" fill="none" xmlns="http://www.w3.org/2000/svg">
<path d="M12.6667 3.91667H13.0833M1 6.33333C1 4.46667 1 3.53333 1.36333 2.82C1.68291 2.19282 2.19282 1.68291 2.82 1.36333C3.53333 1 4.46667 1 6.33333 1H10.6667C12.5333 1 13.4667 1 14.18 1.36333C14.8072 1.68291 15.3171 2.19282 15.6367 2.82C16 3.53333 16 4.46667 16 6.33333V10.6667C16 12.5333 16 13.4667 15.6367 14.18C15.3171 14.8072 14.8072 15.3171 14.18 15.6367C13.4667 16 12.5333 16 10.6667 16H6.33333C4.46667 16 3.53333 16 2.82 15.6367C2.19282 15.3171 1.68291 14.8072 1.36333 14.18C1 13.4667 1 12.5333 1 10.6667V6.33333ZM11.385 8.0725C11.4411 8.45142 11.4221 8.83768 11.329 9.20924C11.2358 9.5808 11.0704 9.93038 10.8422 10.238C10.6139 10.5456 10.3273 10.8053 9.99874 11.0022C9.67015 11.1991 9.306 11.3293 8.92708 11.3854C8.54816 11.4416 8.1619 11.4225 7.79034 11.3294C7.41878 11.2362 7.06921 11.0708 6.76157 10.8426C6.14028 10.3816 5.72755 9.69276 5.61417 8.9275C5.50079 8.16224 5.69605 7.38328 6.157 6.76199C6.61795 6.1407 7.30682 5.72796 8.07208 5.61458C8.83734 5.5012 9.6163 5.69646 10.2376 6.15741C10.8589 6.61836 11.2716 7.30724 11.385 8.0725Z" stroke="white" stroke-width="1.5" stroke-linecap="round" stroke-linejoin="round"/>
</svg>
