<svg width="20" height="21" viewBox="0 0 20 21" fill="none" xmlns="http://www.w3.org/2000/svg">
<path d="M15 4.88525H15.5M13.462 9.87225C13.5294 10.327 13.5065 10.7905 13.3947 11.2363C13.283 11.6822 13.0845 12.1017 12.8106 12.4709C12.5367 12.84 12.1928 13.1516 11.7985 13.3879C11.4042 13.6241 10.9672 13.7804 10.5125 13.8478C10.0578 13.9151 9.59428 13.8923 9.14841 13.7805C8.70254 13.6687 8.28305 13.4702 7.91389 13.1964C7.16834 12.6432 6.67306 11.8166 6.537 10.8983C6.40094 9.97994 6.63526 9.04519 7.1884 8.29964C7.74154 7.55409 8.56819 7.05881 9.4865 6.92275C10.4048 6.7867 11.3396 7.02101 12.0851 7.57415C12.8307 8.12729 13.3259 8.95394 13.462 9.87225ZM1 7.78525C1 5.54525 1 4.42525 1.436 3.56925C1.81949 2.81664 2.43139 2.20474 3.184 1.82125C4.04 1.38525 5.16 1.38525 7.4 1.38525H12.6C14.84 1.38525 15.96 1.38525 16.816 1.82125C17.5686 2.20474 18.1805 2.81664 18.564 3.56925C19 4.42525 19 5.54525 19 7.78525V12.9853C19 15.2253 19 16.3453 18.564 17.2013C18.1805 17.9539 17.5686 18.5658 16.816 18.9493C15.96 19.3853 14.84 19.3853 12.6 19.3853H7.4C5.16 19.3853 4.04 19.3853 3.184 18.9493C2.43139 18.5658 1.81949 17.9539 1.436 17.2013C1 16.3453 1 15.2253 1 12.9853V7.78525Z" stroke="white" stroke-width="1.5" stroke-linecap="round" stroke-linejoin="round"/>
</svg>
