<svg width="131" height="40" viewBox="0 0 131 40" fill="none" xmlns="http://www.w3.org/2000/svg">
<path d="M63.2616 18.61C59.2056 19.0433 55.4789 19.26 52.0816 19.26C50.3829 19.26 49.1349 18.8613 48.3376 18.064C47.5402 17.2667 47.1416 16.0187 47.1416 14.32V6C47.1416 4.18 47.5489 2.86267 48.3636 2.048C49.1956 1.216 50.5216 0.799999 52.3416 0.799999H61.7016V4.44H53.3816C52.3416 4.44 51.8216 4.96 51.8216 6V14.32C51.8216 14.7187 51.9342 15.0393 52.1596 15.282C52.4022 15.5073 52.7229 15.62 53.1216 15.62C55.1149 15.62 56.9349 15.5767 58.5816 15.49V11.72H55.2016V8.6H63.2616V18.61ZM70.5466 5.74V19H65.9966V9.25H64.0466V5.74H70.5466ZM65.9966 0.539999H70.5466V4.18H65.9966V0.539999ZM71.8548 15.36C75.3734 15.62 78.1468 15.75 80.1748 15.75C80.4348 15.75 80.6514 15.6633 80.8248 15.49C80.9981 15.3167 81.0848 15.1 81.0848 14.84V13.93H75.4948C74.3161 13.93 73.3714 13.5747 72.6608 12.864C71.9501 12.1533 71.5948 11.2087 71.5948 10.03V9.12C71.5948 7.94133 71.9501 6.99667 72.6608 6.286C73.3714 5.57533 74.3161 5.22 75.4948 5.22H84.3348V8.6H77.0548C76.7948 8.6 76.5781 8.68667 76.4048 8.86C76.2314 9.03333 76.1448 9.25 76.1448 9.51C76.1448 9.77 76.2314 9.98667 76.4048 10.16C76.5781 10.3333 76.7948 10.42 77.0548 10.42H81.7348C82.9134 10.42 83.8581 10.7753 84.5688 11.486C85.2794 12.1967 85.6348 13.1413 85.6348 14.32V15.36C85.6348 16.5387 85.2794 17.4833 84.5688 18.194C83.8581 18.9047 82.9134 19.26 81.7348 19.26C78.6668 19.26 75.3734 19.0867 71.8548 18.74V15.36ZM86.1568 15.36C89.6755 15.62 92.4488 15.75 94.4768 15.75C94.7368 15.75 94.9535 15.6633 95.1268 15.49C95.3001 15.3167 95.3868 15.1 95.3868 14.84V13.93H89.7968C88.6181 13.93 87.6735 13.5747 86.9628 12.864C86.2521 12.1533 85.8968 11.2087 85.8968 10.03V9.12C85.8968 7.94133 86.2521 6.99667 86.9628 6.286C87.6735 5.57533 88.6181 5.22 89.7968 5.22H98.6368V8.6H91.3568C91.0968 8.6 90.8801 8.68667 90.7068 8.86C90.5335 9.03333 90.4468 9.25 90.4468 9.51C90.4468 9.77 90.5335 9.98667 90.7068 10.16C90.8801 10.3333 91.0968 10.42 91.3568 10.42H96.0368C97.2155 10.42 98.1601 10.7753 98.8708 11.486C99.5815 12.1967 99.9368 13.1413 99.9368 14.32V15.36C99.9368 16.5387 99.5815 17.4833 98.8708 18.194C98.1601 18.9047 97.2155 19.26 96.0368 19.26C92.9688 19.26 89.6755 19.0867 86.1568 18.74V15.36ZM107.349 15.49C108.267 15.49 109.307 15.3167 110.469 14.97V5.22H115.019V19H110.989L110.729 17.7C109.914 18.2373 109.073 18.636 108.207 18.896C107.357 19.1387 106.638 19.26 106.049 19.26H104.879C103.7 19.26 102.755 18.9047 102.045 18.194C101.334 17.4833 100.979 16.5387 100.979 15.36V5.22H105.529V14.58C105.529 14.84 105.615 15.0567 105.789 15.23C105.962 15.4033 106.179 15.49 106.439 15.49H107.349Z" fill="white"/>
<path d="M51.8616 38H47.5416V21.2H60.8616V24.56H51.8616V28.52H58.9416V31.88H51.8616V38ZM68.0616 38C66.9896 38.16 65.9656 38.24 64.9896 38.24C64.0296 38.24 63.2216 37.912 62.5656 37.256C61.9096 36.6 61.5816 35.728 61.5816 34.64V21.2H65.7816V34.04C65.7816 34.28 65.8616 34.48 66.0216 34.64C66.1816 34.8 66.3816 34.88 66.6216 34.88H68.0616V38ZM81.9778 34.4C81.9778 35.6 81.6338 36.544 80.9458 37.232C80.2738 37.904 79.3378 38.24 78.1378 38.24H72.6178C71.4178 38.24 70.4738 37.904 69.7858 37.232C69.1138 36.544 68.7778 35.6 68.7778 34.4V28.88C68.7778 27.68 69.1138 26.744 69.7858 26.072C70.4738 25.384 71.4178 25.04 72.6178 25.04H78.1378C79.3378 25.04 80.2738 25.384 80.9458 26.072C81.6338 26.744 81.9778 27.68 81.9778 28.88V34.4ZM77.7778 29.24C77.7778 28.6 77.4578 28.28 76.8178 28.28H73.9378C73.2978 28.28 72.9778 28.6 72.9778 29.24V34.04C72.9778 34.68 73.2978 35 73.9378 35H76.8178C77.4578 35 77.7778 34.68 77.7778 34.04V29.24ZM90.735 28.76C89.727 28.76 88.687 29 87.615 29.48V38H83.415V25.28H87.135L87.375 26.84C88.751 25.64 90.191 25.04 91.695 25.04H92.775V28.76H90.735ZM99.0141 25.76V38H94.8141V29H93.0141V25.76H99.0141ZM94.8141 20.96H99.0141V24.32H94.8141V20.96ZM113.662 34.4C113.662 35.6 113.318 36.544 112.63 37.232C111.958 37.904 111.022 38.24 109.822 38.24H104.302C103.102 38.24 102.158 37.904 101.47 37.232C100.798 36.544 100.462 35.6 100.462 34.4V28.88C100.462 27.68 100.798 26.744 101.47 26.072C102.158 25.384 103.102 25.04 104.302 25.04H109.822C111.022 25.04 111.958 25.384 112.63 26.072C113.318 26.744 113.662 27.68 113.662 28.88V34.4ZM109.462 29.24C109.462 28.6 109.142 28.28 108.502 28.28H105.622C104.982 28.28 104.662 28.6 104.662 29.24V34.04C104.662 34.68 104.982 35 105.622 35H108.502C109.142 35 109.462 34.68 109.462 34.04V29.24ZM120.979 34.76C121.827 34.76 122.787 34.6 123.859 34.28V25.28H128.059V38H124.339L124.099 36.8C123.347 37.296 122.571 37.664 121.771 37.904C120.987 38.128 120.323 38.24 119.779 38.24H118.699C117.611 38.24 116.739 37.912 116.083 37.256C115.427 36.6 115.099 35.728 115.099 34.64V25.28H119.299V33.92C119.299 34.16 119.379 34.36 119.539 34.52C119.699 34.68 119.899 34.76 120.139 34.76H120.979Z" fill="#C2C2C2"/>
<path d="M18.1016 37L33.4601 29.0512C34.057 28.7414 34.3554 28.5884 34.5727 28.3598C34.7651 28.1592 34.9108 27.9186 34.9996 27.6552C35.1016 27.3549 35.1016 27.0205 35.1016 26.348V11.5611M18.1016 37L2.74301 29.0512C2.14612 28.7414 1.84767 28.5884 1.63045 28.3598C1.43849 28.1589 1.29279 27.9184 1.20356 27.6552C1.10156 27.3549 1.10156 27.0186 1.10156 26.3443V11.5611M18.1016 37V19.8802M35.1016 11.5611L18.1016 19.8802M35.1016 11.5611L26.6016 7.15979M1.10156 11.5611L16.7208 3.47816C17.227 3.21749 17.4782 3.08526 17.7446 3.03425C17.9804 2.98858 18.2228 2.98858 18.4586 3.03425C18.723 3.08526 18.9761 3.21749 19.4805 3.47816L26.6016 7.15979M1.10156 11.5611L9.60156 15.7225M18.1016 19.8802L9.60156 15.7206M26.6016 7.15979L9.60156 15.7206M9.60156 15.7206V19.8802" stroke="#C2C2C2" stroke-width="2" stroke-linecap="round" stroke-linejoin="round"/>
</svg>
