<svg width="127" height="35" viewBox="0 0 127 35" fill="none" xmlns="http://www.w3.org/2000/svg">
<rect y="1" width="34" height="34" rx="3" fill="white"/>
<path d="M44.33 3.137C44.4187 3.137 44.6213 3.137 44.938 3.137C45.2547 3.12433 45.6093 3.118 46.002 3.118C46.3947 3.118 46.7873 3.118 47.18 3.118C47.5727 3.10533 47.8957 3.099 48.149 3.099C49.7197 3.099 50.866 3.40933 51.588 4.03C52.31 4.638 52.671 5.49933 52.671 6.614C52.671 7.34867 52.4873 8.001 52.12 8.571C51.7527 9.141 51.151 9.55267 50.315 9.806C50.6697 10.0087 50.9863 10.2873 51.265 10.642C51.5437 10.9967 51.816 11.4337 52.082 11.953C52.348 12.4597 52.6203 13.055 52.899 13.739C53.1777 14.4103 53.5007 15.164 53.868 16H51.417C50.9863 14.9993 50.6063 14.1443 50.277 13.435C49.9603 12.7257 49.65 12.1493 49.346 11.706C49.042 11.2627 48.7127 10.9397 48.358 10.737C48.016 10.5343 47.6107 10.433 47.142 10.433H46.591V16H44.33V3.137ZM46.591 8.78H48.054C48.7633 8.78 49.308 8.62167 49.688 8.305C50.0807 7.98833 50.277 7.51967 50.277 6.899C50.277 6.62033 50.239 6.348 50.163 6.082C50.087 5.816 49.954 5.58167 49.764 5.379C49.5867 5.17633 49.3397 5.018 49.023 4.904C48.719 4.77733 48.3327 4.714 47.864 4.714H46.591V8.78ZM59.2581 2.966C60.2081 2.966 61.0187 3.118 61.6901 3.422C62.3614 3.726 62.9124 4.15667 63.3431 4.714C63.7864 5.27133 64.1094 5.95533 64.3121 6.766C64.5147 7.564 64.6161 8.46333 64.6161 9.464C64.6161 10.452 64.5021 11.3577 64.2741 12.181C64.0587 12.9917 63.7167 13.6883 63.2481 14.271C62.7921 14.8537 62.2094 15.3097 61.5001 15.639C60.8034 15.9557 59.9737 16.114 59.0111 16.114C58.0611 16.114 57.2441 15.9747 56.5601 15.696C55.8887 15.4047 55.3314 14.9867 54.8881 14.442C54.4574 13.8847 54.1407 13.2133 53.9381 12.428C53.7354 11.6427 53.6341 10.7433 53.6341 9.73C53.6341 8.742 53.7417 7.83633 53.9571 7.013C54.1851 6.177 54.5271 5.46133 54.9831 4.866C55.4517 4.258 56.0407 3.78933 56.7501 3.46C57.4594 3.13067 58.2954 2.966 59.2581 2.966ZM58.9921 4.714C58.4347 4.714 57.9724 4.84067 57.6051 5.094C57.2377 5.33467 56.9401 5.67033 56.7121 6.101C56.4841 6.53167 56.3194 7.03833 56.2181 7.621C56.1294 8.20367 56.0851 8.837 56.0851 9.521C56.0851 10.167 56.1294 10.7813 56.2181 11.364C56.3067 11.9467 56.4651 12.4597 56.6931 12.903C56.9337 13.3463 57.2567 13.701 57.6621 13.967C58.0801 14.233 58.6184 14.366 59.2771 14.366C59.8217 14.366 60.2777 14.2457 60.6451 14.005C61.0251 13.7643 61.3291 13.435 61.5571 13.017C61.7851 12.599 61.9434 12.105 62.0321 11.535C62.1334 10.9523 62.1841 10.3253 62.1841 9.654C62.1841 9.008 62.1397 8.38733 62.0511 7.792C61.9624 7.19667 61.7977 6.671 61.5571 6.215C61.3291 5.759 61.0061 5.398 60.5881 5.132C60.1827 4.85333 59.6507 4.714 58.9921 4.714ZM66.0405 3.137H73.6785V4.847H68.3015V8.438H72.7285L72.4435 10.167H68.3015V14.29H73.9635V16H66.0405V3.137ZM82.6217 3.137H84.8827V16.019H83.0017L78.6697 9.255C78.429 8.88767 78.163 8.476 77.8717 8.02C77.593 7.55133 77.327 7.12067 77.0737 6.728C77.1117 7.13333 77.1433 7.55767 77.1687 8.001C77.2067 8.44433 77.2257 8.86867 77.2257 9.274L77.2827 16H75.0217V3.099H76.7887L81.2537 9.787C81.507 10.1543 81.7603 10.547 82.0137 10.965C82.2797 11.3703 82.5393 11.763 82.7927 12.143C82.7673 11.7377 82.742 11.3323 82.7167 10.927C82.6913 10.509 82.6787 10.1543 82.6787 9.863L82.6217 3.137ZM94.6141 3.137L94.3291 4.847H91.1371V16H88.8951V4.847H85.6461V3.137H94.6141ZM95.3962 3.137H103.034V4.847H97.6572V8.438H102.084L101.799 10.167H97.6572V14.29H103.319V16H95.3962V3.137ZM104.377 3.137C104.466 3.137 104.669 3.137 104.985 3.137C105.302 3.12433 105.657 3.118 106.049 3.118C106.442 3.118 106.835 3.118 107.227 3.118C107.62 3.10533 107.943 3.099 108.196 3.099C109.742 3.099 110.882 3.44733 111.616 4.144C112.351 4.828 112.718 5.77167 112.718 6.975C112.718 7.55767 112.617 8.096 112.414 8.59C112.212 9.07133 111.908 9.48933 111.502 9.844C111.11 10.1987 110.616 10.4773 110.02 10.68C109.438 10.87 108.754 10.965 107.968 10.965H106.638V16H104.377V3.137ZM106.638 9.274H108.101C108.899 9.274 109.469 9.065 109.811 8.647C110.153 8.229 110.324 7.697 110.324 7.051C110.324 6.75967 110.286 6.47467 110.21 6.196C110.134 5.91733 110.001 5.67033 109.811 5.455C109.634 5.227 109.387 5.04967 109.07 4.923C108.766 4.78367 108.38 4.714 107.911 4.714C107.633 4.714 107.386 4.714 107.17 4.714C106.968 4.714 106.79 4.72033 106.638 4.733V9.274Z" fill="white"/>
<path d="M51.892 27.148H46.591V33H44.33V20.137H46.591V25.495H51.892V20.137H54.153V33H51.892V27.148ZM61.2063 19.966C62.1563 19.966 62.967 20.118 63.6383 20.422C64.3096 20.726 64.8606 21.1567 65.2913 21.714C65.7346 22.2713 66.0576 22.9553 66.2603 23.766C66.463 24.564 66.5643 25.4633 66.5643 26.464C66.5643 27.452 66.4503 28.3577 66.2223 29.181C66.007 29.9917 65.665 30.6883 65.1963 31.271C64.7403 31.8537 64.1576 32.3097 63.4483 32.639C62.7516 32.9557 61.922 33.114 60.9593 33.114C60.0093 33.114 59.1923 32.9747 58.5083 32.696C57.837 32.4047 57.2796 31.9867 56.8363 31.442C56.4056 30.8847 56.089 30.2133 55.8863 29.428C55.6836 28.6427 55.5823 27.7433 55.5823 26.73C55.5823 25.742 55.69 24.8363 55.9053 24.013C56.1333 23.177 56.4753 22.4613 56.9313 21.866C57.4 21.258 57.989 20.7893 58.6983 20.46C59.4076 20.1307 60.2436 19.966 61.2063 19.966ZM60.9403 21.714C60.383 21.714 59.9206 21.8407 59.5533 22.094C59.186 22.3347 58.8883 22.6703 58.6603 23.101C58.4323 23.5317 58.2676 24.0383 58.1663 24.621C58.0776 25.2037 58.0333 25.837 58.0333 26.521C58.0333 27.167 58.0776 27.7813 58.1663 28.364C58.255 28.9467 58.4133 29.4597 58.6413 29.903C58.882 30.3463 59.205 30.701 59.6103 30.967C60.0283 31.233 60.5666 31.366 61.2253 31.366C61.77 31.366 62.226 31.2457 62.5933 31.005C62.9733 30.7643 63.2773 30.435 63.5053 30.017C63.7333 29.599 63.8916 29.105 63.9803 28.535C64.0816 27.9523 64.1323 27.3253 64.1323 26.654C64.1323 26.008 64.088 25.3873 63.9993 24.792C63.9106 24.1967 63.746 23.671 63.5053 23.215C63.2773 22.759 62.9543 22.398 62.5363 22.132C62.131 21.8533 61.599 21.714 60.9403 21.714ZM67.9887 20.137C68.0774 20.137 68.28 20.137 68.5967 20.137C68.9134 20.1243 69.268 20.118 69.6607 20.118C70.0534 20.118 70.446 20.118 70.8387 20.118C71.2314 20.1053 71.5544 20.099 71.8077 20.099C73.3784 20.099 74.5247 20.4093 75.2467 21.03C75.9687 21.638 76.3297 22.4993 76.3297 23.614C76.3297 24.3487 76.146 25.001 75.7787 25.571C75.4114 26.141 74.8097 26.5527 73.9737 26.806C74.3284 27.0087 74.645 27.2873 74.9237 27.642C75.2024 27.9967 75.4747 28.4337 75.7407 28.953C76.0067 29.4597 76.279 30.055 76.5577 30.739C76.8364 31.4103 77.1594 32.164 77.5267 33H75.0757C74.645 31.9993 74.265 31.1443 73.9357 30.435C73.619 29.7257 73.3087 29.1493 73.0047 28.706C72.7007 28.2627 72.3714 27.9397 72.0167 27.737C71.6747 27.5343 71.2694 27.433 70.8007 27.433H70.2497V33H67.9887V20.137ZM70.2497 25.78H71.7127C72.422 25.78 72.9667 25.6217 73.3467 25.305C73.7394 24.9883 73.9357 24.5197 73.9357 23.899C73.9357 23.6203 73.8977 23.348 73.8217 23.082C73.7457 22.816 73.6127 22.5817 73.4227 22.379C73.2454 22.1763 72.9984 22.018 72.6817 21.904C72.3777 21.7773 71.9914 21.714 71.5227 21.714H70.2497V25.78ZM78.1389 20.137H80.3999V33H78.1389V20.137ZM82.2959 20.137H89.9339V21.847H84.5569V25.552H88.9839L88.6989 27.262H84.5569V33H82.2959V20.137ZM95.2015 19.966C96.1515 19.966 96.9621 20.118 97.6335 20.422C98.3048 20.726 98.8558 21.1567 99.2865 21.714C99.7298 22.2713 100.053 22.9553 100.255 23.766C100.458 24.564 100.559 25.4633 100.559 26.464C100.559 27.452 100.445 28.3577 100.217 29.181C100.002 29.9917 99.6601 30.6883 99.1915 31.271C98.7355 31.8537 98.1528 32.3097 97.4435 32.639C96.7468 32.9557 95.9171 33.114 94.9545 33.114C94.0045 33.114 93.1875 32.9747 92.5035 32.696C91.8321 32.4047 91.2748 31.9867 90.8315 31.442C90.4008 30.8847 90.0841 30.2133 89.8815 29.428C89.6788 28.6427 89.5775 27.7433 89.5775 26.73C89.5775 25.742 89.6851 24.8363 89.9005 24.013C90.1285 23.177 90.4705 22.4613 90.9265 21.866C91.3951 21.258 91.9841 20.7893 92.6935 20.46C93.4028 20.1307 94.2388 19.966 95.2015 19.966ZM94.9355 21.714C94.3781 21.714 93.9158 21.8407 93.5485 22.094C93.1811 22.3347 92.8835 22.6703 92.6555 23.101C92.4275 23.5317 92.2628 24.0383 92.1615 24.621C92.0728 25.2037 92.0285 25.837 92.0285 26.521C92.0285 27.167 92.0728 27.7813 92.1615 28.364C92.2501 28.9467 92.4085 29.4597 92.6365 29.903C92.8771 30.3463 93.2001 30.701 93.6055 30.967C94.0235 31.233 94.5618 31.366 95.2205 31.366C95.7651 31.366 96.2211 31.2457 96.5885 31.005C96.9685 30.7643 97.2725 30.435 97.5005 30.017C97.7285 29.599 97.8868 29.105 97.9755 28.535C98.0768 27.9523 98.1275 27.3253 98.1275 26.654C98.1275 26.008 98.0831 25.3873 97.9945 24.792C97.9058 24.1967 97.7411 23.671 97.5005 23.215C97.2725 22.759 96.9495 22.398 96.5315 22.132C96.1261 21.8533 95.5941 21.714 94.9355 21.714ZM101.984 20.137C102.073 20.137 102.275 20.137 102.592 20.137C102.909 20.1243 103.263 20.118 103.656 20.118C104.049 20.118 104.441 20.118 104.834 20.118C105.227 20.1053 105.55 20.099 105.803 20.099C107.374 20.099 108.52 20.4093 109.242 21.03C109.964 21.638 110.325 22.4993 110.325 23.614C110.325 24.3487 110.141 25.001 109.774 25.571C109.407 26.141 108.805 26.5527 107.969 26.806C108.324 27.0087 108.64 27.2873 108.919 27.642C109.198 27.9967 109.47 28.4337 109.736 28.953C110.002 29.4597 110.274 30.055 110.553 30.739C110.832 31.4103 111.155 32.164 111.522 33H109.071C108.64 31.9993 108.26 31.1443 107.931 30.435C107.614 29.7257 107.304 29.1493 107 28.706C106.696 28.2627 106.367 27.9397 106.012 27.737C105.67 27.5343 105.265 27.433 104.796 27.433H104.245V33H101.984V20.137ZM104.245 25.78H105.708C106.417 25.78 106.962 25.6217 107.342 25.305C107.735 24.9883 107.931 24.5197 107.931 23.899C107.931 23.6203 107.893 23.348 107.817 23.082C107.741 22.816 107.608 22.5817 107.418 22.379C107.241 22.1763 106.994 22.018 106.677 21.904C106.373 21.7773 105.987 21.714 105.518 21.714H104.245V25.78ZM119.354 33H117.758L115.611 28.117C115.548 27.9777 115.465 27.7877 115.364 27.547C115.275 27.3063 115.174 27.0403 115.06 26.749C114.946 26.4577 114.826 26.1537 114.699 25.837C114.572 25.5077 114.452 25.1783 114.338 24.849C114.338 25.1783 114.332 25.5077 114.319 25.837C114.319 26.1537 114.313 26.4577 114.3 26.749C114.287 27.0277 114.275 27.281 114.262 27.509C114.262 27.7243 114.262 27.8953 114.262 28.022L114.072 33H111.944L112.704 20.099H114.471L117.72 28.155C117.834 28.4463 117.961 28.763 118.1 29.105C118.252 29.447 118.391 29.7827 118.518 30.112C118.645 29.7827 118.778 29.4533 118.917 29.124C119.056 28.782 119.189 28.459 119.316 28.155L122.584 20.099H124.313L125.073 33H122.964L122.755 28.079C122.742 27.7623 122.723 27.3127 122.698 26.73C122.685 26.1347 122.673 25.533 122.66 24.925C122.546 25.2417 122.426 25.5583 122.299 25.875C122.185 26.1917 122.077 26.4893 121.976 26.768C121.875 27.0467 121.78 27.3 121.691 27.528C121.602 27.756 121.533 27.9333 121.482 28.06L119.354 33Z" fill="#C2C2C2"/>
<mask id="mask0_782_2846" style="mask-type:alpha" maskUnits="userSpaceOnUse" x="0" y="1" width="34" height="34">
<rect y="1" width="34" height="34" rx="3" fill="#0E0D26"/>
</mask>
<g mask="url(#mask0_782_2846)">
<path d="M24.5315 40.7976C26.6174 43.951 31.2945 44.3443 34.9073 41.9545C38.52 39.5647 39.9879 35.1065 37.902 31.9531C35.8161 28.7998 31.139 28.4065 27.5262 30.7963C23.9134 33.1861 22.4455 37.6443 24.5315 40.7976Z" fill="#B3DE4F" stroke="white"/>
</g>
<path d="M6 26V10H8.68333V17.0698H20.5667C20.26 18.5581 18.9056 19.1783 18.2667 19.3023H8.68333V26H6Z" fill="#0E0D26"/>
<path d="M11.3667 15.9535V10H19.0333C20.95 10 23.6333 12.6047 23.6333 15.9535C23.6333 18.6326 21.5889 21.0388 20.5667 21.907L23.6333 26H20.5667L17.5 22.2791H13.6667V26H11.3667V20.0465H18.2667C19.2889 19.7984 21.3333 18.6326 21.3333 15.9535C21.3333 13.2744 19.2889 12.3566 18.2667 12.2326H13.6667V15.9535H11.3667Z" fill="#0E0D26"/>
<path d="M26.7 17.0698V10H29V26H26.7V18.9302H24.0167C24.3233 18.6326 24.6556 17.5659 24.7833 17.0698H26.7Z" fill="#0E0D26"/>
</svg>
