<svg width="118" height="32" viewBox="0 0 118 32" fill="none" xmlns="http://www.w3.org/2000/svg">
<path d="M1.71856 16V1.006H5.03656V13.228H16.6286V16H1.71856ZM21.9613 6.97H32.9443V9.49H21.9613V13.354H33.5953V16H18.6433V1.006H33.3223V3.652H21.9613V6.97ZM47.5955 5.542C47.5255 4.632 47.0985 3.995 46.3145 3.631C45.5445 3.267 44.4455 3.085 43.0175 3.085C40.3435 3.085 39.0065 3.729 39.0065 5.017C39.0065 5.535 39.1885 5.906 39.5525 6.13C39.9165 6.354 40.5045 6.508 41.3165 6.592L46.9865 7.096C48.5545 7.236 49.7515 7.649 50.5775 8.335C51.4035 9.007 51.8165 10.064 51.8165 11.506C51.8165 13.298 51.0955 14.565 49.6535 15.307C48.2115 16.049 46.0835 16.42 43.2695 16.42C40.5395 16.42 38.4535 16.021 37.0115 15.223C35.5695 14.411 34.8205 12.99 34.7645 10.96H38.4815C38.5655 12.08 39.0135 12.85 39.8255 13.27C40.6515 13.676 41.8415 13.879 43.3955 13.879C46.4615 13.879 47.9945 13.165 47.9945 11.737C47.9945 11.121 47.7985 10.68 47.4065 10.414C47.0285 10.148 46.4685 9.98 45.7265 9.91L40.0775 9.343C38.4955 9.189 37.2915 8.797 36.4655 8.167C35.6535 7.537 35.2475 6.557 35.2475 5.227C35.2475 2.133 37.8655 0.585999 43.1015 0.585999C45.6495 0.585999 47.6375 0.964 49.0655 1.72C50.5075 2.476 51.2565 3.75 51.3125 5.542H47.5955ZM65.5251 5.542C65.4551 4.632 65.0281 3.995 64.2441 3.631C63.4741 3.267 62.3751 3.085 60.9471 3.085C58.2731 3.085 56.9361 3.729 56.9361 5.017C56.9361 5.535 57.1181 5.906 57.4821 6.13C57.8461 6.354 58.4341 6.508 59.2461 6.592L64.9161 7.096C66.4841 7.236 67.6811 7.649 68.5071 8.335C69.3331 9.007 69.7461 10.064 69.7461 11.506C69.7461 13.298 69.0251 14.565 67.5831 15.307C66.1411 16.049 64.0131 16.42 61.1991 16.42C58.4691 16.42 56.3831 16.021 54.9411 15.223C53.4991 14.411 52.7501 12.99 52.6941 10.96H56.4111C56.4951 12.08 56.9431 12.85 57.7551 13.27C58.5811 13.676 59.7711 13.879 61.3251 13.879C64.3911 13.879 65.9241 13.165 65.9241 11.737C65.9241 11.121 65.7281 10.68 65.3361 10.414C64.9581 10.148 64.3981 9.98 63.6561 9.91L58.0071 9.343C56.4251 9.189 55.2211 8.797 54.3951 8.167C53.5831 7.537 53.1771 6.557 53.1771 5.227C53.1771 2.133 55.7951 0.585999 61.0311 0.585999C63.5791 0.585999 65.5671 0.964 66.9951 1.72C68.4371 2.476 69.1861 3.75 69.2421 5.542H65.5251ZM71.6527 16V1.006H74.9707V16H71.6527ZM86.4477 0.585999C89.3877 0.585999 91.7047 1.258 93.3987 2.602C95.0927 3.932 95.9397 5.899 95.9397 8.503C95.9397 11.107 95.0927 13.081 93.3987 14.425C91.7047 15.755 89.3877 16.42 86.4477 16.42C83.5077 16.42 81.1907 15.755 79.4967 14.425C77.8027 13.081 76.9557 11.107 76.9557 8.503C76.9557 5.899 77.8027 3.932 79.4967 2.602C81.1907 1.258 83.5077 0.585999 86.4477 0.585999ZM86.4477 13.648C88.2957 13.648 89.7307 13.214 90.7527 12.346C91.7747 11.478 92.2857 10.197 92.2857 8.503C92.2857 6.809 91.7747 5.528 90.7527 4.66C89.7307 3.792 88.2957 3.358 86.4477 3.358C84.5997 3.358 83.1647 3.792 82.1427 4.66C81.1207 5.528 80.6097 6.809 80.6097 8.503C80.6097 10.197 81.1207 11.478 82.1427 12.346C83.1647 13.214 84.5997 13.648 86.4477 13.648ZM114.672 1.006V16H110.892L101.19 5.059H101.085V16H97.9347V1.006H101.82L111.417 11.821H111.522V1.006H114.672Z" fill="white"/>
<path d="M34.9216 24.992V27.116H41.1976V28.604H34.9216V32H33.0256V23.432H41.4376V24.992H34.9216ZM44.1748 32V23.432H46.0708V32H44.1748ZM57.2851 27.416C57.6931 27.544 58.0131 27.772 58.2451 28.1C58.4851 28.42 58.6051 28.9 58.6051 29.54C58.6051 30.372 58.3691 30.992 57.8971 31.4C57.4251 31.8 56.6811 32 55.6651 32H49.1131V23.432H55.5331C57.3811 23.432 58.3051 24.168 58.3051 25.64C58.3051 26.096 58.2171 26.468 58.0411 26.756C57.8651 27.044 57.6131 27.244 57.2851 27.356V27.416ZM55.0771 26.9C55.4771 26.9 55.7691 26.82 55.9531 26.66C56.1451 26.492 56.2411 26.236 56.2411 25.892C56.2411 25.54 56.1451 25.284 55.9531 25.124C55.7691 24.964 55.4771 24.884 55.0771 24.884H51.0091V26.9H55.0771ZM55.1971 30.548C55.6611 30.548 55.9971 30.456 56.2051 30.272C56.4211 30.088 56.5291 29.796 56.5291 29.396C56.5291 28.996 56.4211 28.704 56.2051 28.52C55.9971 28.328 55.6611 28.232 55.1971 28.232H51.0091V30.548H55.1971ZM63.213 26.84H69.489V28.28H63.213V30.488H69.861V32H61.317V23.432H69.705V24.944H63.213V26.84ZM84.1251 32H82.2291V25.256H82.1691L79.1691 32H77.5971L74.5491 25.16H74.4891V32H72.6771V23.432H75.7251L78.3651 29.504H78.4131L81.0291 23.432H84.1251V32Z" fill="#C2C2C2"/>
</svg>
