<svg width="178" height="178" viewBox="0 0 178 178" fill="none" xmlns="http://www.w3.org/2000/svg">
<path d="M87.936 10.4645V3.88447H89.966V13.3345H87.53L83.428 6.71247V13.3345H81.398V3.88447H83.806L87.936 10.4645Z" fill="#C2C2C2"/>
<path d="M99.8369 4.57407L99.5967 6.32164L94.8255 5.66586L94.5434 7.71856L98.9401 8.32287L98.7018 10.0566L94.3051 9.45226L94.0211 11.5188L98.7922 12.1746L98.5501 13.9361L91.7679 13.0039L93.0547 3.64187L99.8369 4.57407Z" fill="#C2C2C2"/>
<path d="M111.228 6.83525L110.752 8.53383L106.114 7.23449L105.555 9.22966L109.829 10.427L109.357 12.1121L105.083 10.9148L104.52 12.9234L109.158 14.2228L108.678 15.9348L102.086 14.0878L104.635 4.98822L111.228 6.83525Z" fill="#C2C2C2"/>
<path d="M115.446 17.9952L112.171 16.5729L115.936 7.90527L119.21 9.32756C122.254 10.6495 123.277 12.7575 122.005 15.6852C120.716 18.6515 118.476 19.3115 115.446 17.9952ZM117.082 10.3264L114.729 15.7453L116.141 16.3588C117.952 17.1453 119.356 16.687 120.143 14.8765C120.941 13.0402 120.267 11.7097 118.495 10.9399L117.082 10.3264Z" fill="#C2C2C2"/>
<path d="M132.407 26.7814L130.833 25.5003L136.796 18.1698L138.371 19.4509L135.959 22.4157L139.065 24.9426L141.477 21.9778L143.052 23.2589L137.088 30.5894L135.513 29.3083L137.943 26.3218L134.837 23.7949L132.407 26.7814Z" fill="#C2C2C2"/>
<path d="M150.663 30.34L149.373 31.544L146.086 28.0243L144.572 29.4386L147.601 32.682L146.322 33.8765L143.293 30.633L141.768 32.0568L145.056 35.5765L143.756 36.7901L139.083 31.7868L145.99 25.3367L150.663 30.34Z" fill="#C2C2C2"/>
<path d="M150.186 44.5037L146.4 39.1395L154.12 33.6899L155.291 35.3483L149.023 39.7726L151.639 43.4784L150.186 44.5037Z" fill="#C2C2C2"/>
<path d="M161.041 43.0718L162.916 46.6891C163.895 48.5785 163.73 50.1463 161.853 51.1189C159.988 52.085 158.624 51.3095 157.645 49.42L156.705 47.6052L153.585 49.2219L152.651 47.4195L161.041 43.0718ZM158.271 46.7936L159.179 48.5463C159.643 49.4413 160.16 49.7094 160.919 49.3165C161.702 48.9107 161.775 48.321 161.317 47.4385L160.409 45.6858L158.271 46.7936Z" fill="#C2C2C2"/>
<path d="M161.627 58.6198L161.252 57.5644C162.611 57.0815 163.206 57.4196 163.883 57.8181C164.326 58.0617 164.792 58.3271 165.504 58.0739C166.23 57.816 166.496 57.1864 166.215 56.3949C165.915 55.5507 165.24 55.2407 164.396 55.5408C164.251 55.5923 164.11 55.6571 163.961 55.7398L163.193 54.245C163.442 54.1116 163.684 53.9962 163.921 53.9118C165.702 53.2788 167.113 54.1145 167.723 55.8294C168.356 57.6103 167.776 59.1981 166.153 59.7747C164.768 60.267 163.908 59.5622 163.22 59.0046C162.604 58.5252 162.247 58.3994 161.627 58.6198ZM158.971 60.0094L158.32 58.1758L160.325 57.4632L160.976 59.2968L158.971 60.0094Z" fill="#C2C2C2"/>
<path d="M173.824 82.4027L172.065 82.5231L171.736 77.7183L169.669 77.8597L169.964 82.1757L168.218 82.2951L167.923 77.9792L164.068 78.2429L163.929 76.2176L173.357 75.5727L173.824 82.4027Z" fill="#C2C2C2"/>
<path d="M173.93 94.0144L172.17 93.894L172.499 89.0893L170.432 88.9479L170.129 93.3755L168.383 93.2561L168.686 88.8284L166.604 88.6861L166.276 93.4909L164.502 93.3695L164.969 86.5395L174.397 87.1844L173.93 94.0144Z" fill="#C2C2C2"/>
<path d="M172.451 105.532L170.724 105.173L171.704 100.458L169.675 100.036L168.772 104.382L167.059 104.026L167.962 99.6803L165.919 99.2559L164.94 103.971L163.199 103.609L164.592 96.9066L173.844 98.8293L172.451 105.532Z" fill="#C2C2C2"/>
<path d="M160.605 113.312L162.804 107.125L171.708 110.29L171.029 112.203L163.8 109.633L162.281 113.907L160.605 113.312Z" fill="#C2C2C2"/>
<path d="M158.94 137.407L157.499 136.39L160.276 132.455L158.583 131.26L156.088 134.795L154.659 133.786L157.153 130.251L153.997 128.023L155.167 126.365L162.888 131.814L158.94 137.407Z" fill="#C2C2C2"/>
<path d="M144.135 140.725L145.674 139.078L149.599 140.023L150.64 138.908L148.072 136.509L149.458 135.026L156.364 141.476L153.459 144.586C152.007 146.142 150.484 146.501 148.939 145.058C147.772 143.968 147.654 142.823 148.288 141.653L144.135 140.725ZM152.218 143.331L153.689 141.755L151.93 140.112L150.458 141.688C149.78 142.414 149.691 143.001 150.315 143.584C150.959 144.186 151.549 144.047 152.218 143.331Z" fill="#C2C2C2"/>
<path d="M143.278 154.48L142.164 153.112L145.9 150.073L144.592 148.465L141.15 151.266L140.045 149.909L143.488 147.108L142.172 145.49L138.436 148.529L137.314 147.15L142.624 142.829L148.588 150.16L143.278 154.48Z" fill="#C2C2C2"/>
<path d="M133.851 161.26L132.935 159.753L137.049 157.251L135.973 155.481L132.181 157.786L131.272 156.291L135.064 153.985L133.98 152.203L129.865 154.705L128.941 153.186L134.79 149.629L139.7 157.703L133.851 161.26Z" fill="#C2C2C2"/>
<path d="M120.001 168.628L112.331 170.777L111.855 169.079L114.713 168.278L112.639 160.877L114.594 160.329L116.667 167.73L119.525 166.93L120.001 168.628Z" fill="#C2C2C2"/>
<path d="M102.407 163.273C105.209 162.887 107.479 164.596 107.875 167.481C108.272 170.366 106.547 172.624 103.745 173.009C100.93 173.396 98.6599 171.687 98.2634 168.802C97.8669 165.917 99.5915 163.66 102.407 163.273ZM102.661 165.117C101.01 165.344 100.025 166.709 100.275 168.526C100.524 170.343 101.841 171.391 103.492 171.164C105.115 170.941 106.128 169.573 105.878 167.756C105.628 165.939 104.283 164.894 102.661 165.117Z" fill="#C2C2C2"/>
<path d="M77.5497 163.725L79.6857 164.018L80.1022 166.026L83.9441 166.554L84.8868 164.733L87.0227 165.027L82.2408 173.908L79.7581 173.567L77.5497 163.725ZM81.2766 171.67L83.1189 168.136L80.4698 167.772L81.2766 171.67Z" fill="#C2C2C2"/>
<path d="M72.6739 162.737C74.8173 163.337 75.8536 164.776 75.6079 166.743L73.6191 166.68C73.7476 165.495 73.174 164.636 72.0955 164.334C71.2328 164.092 70.6341 164.361 70.4566 164.994C70.23 165.803 71.0593 166.268 71.9872 166.848C73.2355 167.634 74.7097 168.599 74.1695 170.527C73.7352 172.077 72.0984 172.782 70.0897 172.219C68.4586 171.762 67.0928 170.565 67.3207 168.506L69.1941 168.566C69.0693 169.738 69.6996 170.394 70.5354 170.628C71.4117 170.874 72.0605 170.634 72.2267 170.041C72.4193 169.353 71.7151 168.909 70.716 168.324C69.4467 167.561 67.9353 166.469 68.4377 164.676C68.94 162.883 70.4091 162.102 72.6739 162.737Z" fill="#C2C2C2"/>
<path d="M58.2142 158.042L60.2688 158.934L60.8361 163.989L62.8755 163.089L63.9798 160.546L65.8418 161.355L62.0769 170.023L60.2149 169.214L61.8213 165.516L56.8634 167.758L54.5778 166.765L58.9993 164.809L58.2142 158.042Z" fill="#C2C2C2"/>
<path d="M43.5415 153.123L55.5034 160.397L54.7469 161.641L42.785 154.367L43.5415 153.123Z" fill="#C2C2C2"/>
<path d="M41.79 160.23L35.6106 155.202L36.7239 153.834L39.0262 155.707L43.8767 149.745L45.4514 151.026L40.6009 156.988L42.9032 158.861L41.79 160.23Z" fill="#C2C2C2"/>
<path d="M37.5311 144.651L38.9166 146.135L32.0102 152.585L30.6247 151.101L33.4179 148.492L30.685 145.566L27.8917 148.175L26.5061 146.691L33.4125 140.241L34.7981 141.725L31.9844 144.353L34.7173 147.279L37.5311 144.651Z" fill="#C2C2C2"/>
<path d="M30.4293 137.124L31.6 138.783L23.8796 144.232L22.709 142.574L30.4293 137.124Z" fill="#C2C2C2"/>
<path d="M23.9391 127.386C24.9632 129.362 24.6188 131.102 23.0138 132.264L21.7023 130.768C22.6563 130.053 22.8923 129.048 22.377 128.053C21.9648 127.258 21.36 127.003 20.7758 127.306C20.03 127.693 20.2562 128.616 20.4658 129.69C20.7434 131.139 21.0439 132.875 19.2664 133.796C17.8369 134.537 16.2048 133.821 15.2451 131.969C14.4658 130.465 14.4083 128.65 16.0685 127.412L17.3036 128.821C16.3621 129.53 16.3126 130.439 16.7119 131.209C17.1306 132.017 17.7487 132.328 18.2956 132.044C18.9296 131.716 18.7738 130.898 18.5195 129.768C18.2106 128.32 17.9773 126.47 19.6305 125.613C21.2838 124.757 22.857 125.297 23.9391 127.386Z" fill="#C2C2C2"/>
<path d="M16.0879 109.802L16.5009 111.789L7.24853 113.712L6.83551 111.724L16.0879 109.802Z" fill="#C2C2C2"/>
<path d="M14.0191 98.2843C14.171 100.505 13.1622 101.963 11.2268 102.39L10.6201 100.495C11.78 100.22 12.3969 99.3916 12.3205 98.2742C12.2593 97.3803 11.8059 96.9061 11.1494 96.951C10.3114 97.0084 10.151 97.9455 9.91535 99.0141C9.59282 100.453 9.17671 102.166 7.17938 102.302C5.57313 102.412 4.36116 101.106 4.21881 99.0248C4.1032 97.3348 4.77359 95.6471 6.7899 95.1724L7.36106 96.9576C6.21514 97.2324 5.80772 98.0461 5.86695 98.9121C5.92906 99.82 6.37232 100.351 6.98689 100.309C7.69922 100.26 7.88221 99.4478 8.0991 98.3104C8.39273 96.859 8.91581 95.0691 10.7735 94.942C12.6311 94.815 13.8586 95.9378 14.0191 98.2843Z" fill="#C2C2C2"/>
<path d="M5.27551 73.7061L5.75119 71.417L10.1529 75.7635L14.3199 76.6294L13.9098 78.6033L9.74277 77.7373L3.97095 79.984L4.44948 77.6812L8.02885 76.3517L5.27551 73.7061Z" fill="#C2C2C2"/>
<path d="M16.8536 66.6755C15.9066 69.3402 13.3451 70.5694 10.6012 69.5942C7.85732 68.619 6.64604 66.049 7.59308 63.3843C8.5448 60.7064 11.1063 59.4772 13.8502 60.4524C16.5941 61.4275 17.8053 63.9976 16.8536 66.6755ZM15.0991 66.0519C15.657 64.4821 14.8985 62.9793 13.1704 62.3652C11.4423 61.751 9.90547 62.438 9.34756 64.0078C8.79903 65.5512 9.5482 67.0804 11.2763 67.6946C13.0044 68.3088 14.5506 67.5954 15.0991 66.0519Z" fill="#C2C2C2"/>
<path d="M20.3157 57.5319C19.2723 59.5456 17.4851 60.5906 15.3098 59.4634L9.91503 56.6681L10.849 54.8657L16.02 57.5451C17.2009 58.157 18.1269 57.7696 18.6873 56.6881C19.2605 55.5818 19.043 54.6019 17.8621 53.99L12.6911 51.3106L13.6186 49.5206L19.0133 52.316C21.1887 53.4431 21.3655 55.5058 20.3157 57.5319Z" fill="#C2C2C2"/>
<path d="M27.3296 45.1876L26.0297 47.029L22.0125 46.6267L21.1325 47.8734L24.0033 49.8998L22.8326 51.5583L15.1123 46.1087L17.5666 42.6316C18.7938 40.8931 20.2538 40.33 21.9808 41.5491C23.2847 42.4695 23.5579 43.5877 23.0896 44.8337L27.3296 45.1876ZM18.9674 43.7061L17.7241 45.4675L19.6913 46.8561L20.9346 45.0947C21.5079 44.2827 21.5159 43.6886 20.8182 43.1961C20.0977 42.6875 19.5325 42.9055 18.9674 43.7061Z" fill="#C2C2C2"/>
<path d="M36.9504 33.8119L35.3757 35.093L29.412 27.7625L30.9867 26.4814L33.3987 29.4462L36.5046 26.9193L34.0926 23.9546L35.6673 22.6734L41.6311 30.0039L40.0564 31.285L37.6267 28.2985L34.5207 30.8254L36.9504 33.8119Z" fill="#C2C2C2"/>
<path d="M47.0961 26.1424C44.6798 27.6118 41.9171 26.9487 40.404 24.4606C38.891 21.9726 39.5733 19.2145 41.9896 17.7451C44.4179 16.2685 47.1806 16.9315 48.6936 19.4196C50.2066 21.9077 49.5243 24.6657 47.0961 26.1424ZM46.1286 24.5514C47.5521 23.6858 47.9121 22.0414 46.9591 20.4744C46.0062 18.9074 44.3805 18.4704 42.9571 19.3361C41.5575 20.1871 41.1736 21.8461 42.1265 23.4131C43.0795 24.9801 44.7291 25.4025 46.1286 24.5514Z" fill="#C2C2C2"/>
<path d="M55.2217 17.0587L54.6321 11.133L57.8038 9.75534L61.5687 18.423L59.7068 19.2317L56.4104 11.6427L57.3569 20.2524L56.0985 20.7991L50.465 14.2252L53.7614 21.8142L51.8995 22.6229L48.1346 13.9553L51.2935 12.5832L55.2217 17.0587Z" fill="#C2C2C2"/>
<path d="M65.3189 7.24268L65.7949 8.94126L61.1574 10.2406L61.7165 12.2358L65.9899 11.0384L66.462 12.7235L62.1886 13.9209L62.7514 15.9295L67.3888 14.6302L67.8685 16.3422L61.2764 18.1893L58.7268 9.0897L65.3189 7.24268Z" fill="#C2C2C2"/>
<path d="M72.2098 11.9352L71.1002 12.0877C70.748 10.5534 70.2601 8.85398 70.0218 7.12028L69.8292 5.71945L71.7294 5.45828L71.9219 6.85911C72.1602 8.59281 72.1488 10.3608 72.2098 11.9352ZM73.0162 14.8203L71.1021 15.0833L70.8124 12.9752L72.7264 12.7121L73.0162 14.8203Z" fill="#C2C2C2"/>
</svg>
