<svg width="82" height="82" viewBox="0 0 82 82" fill="none" xmlns="http://www.w3.org/2000/svg">
<path d="M75.6409 61.0005C70.3363 70.1877 61.5994 76.8914 51.3522 79.637M75.6409 61.0005C80.9452 51.8131 82.3826 40.895 79.637 30.6478M75.6409 61.0005L48.698 45.4446M51.3522 79.637C41.105 82.3826 30.1869 80.9452 20.9994 75.6409M51.3522 79.637L43.3005 49.586M20.9994 75.6409C11.8123 70.3363 5.10856 61.5994 2.36297 51.3522M20.9994 75.6409L36.5554 48.698M79.637 30.6478C76.8914 20.4006 70.1877 11.6637 61.0005 6.35905M79.637 30.6478L49.586 38.6995M61.0005 6.35905C51.8131 1.05481 40.895 -0.382615 30.6478 2.36297M61.0005 6.35905L45.4446 33.302M48.698 45.4446C47.5192 47.4862 45.5776 48.9759 43.3005 49.586M48.698 45.4446C49.8767 43.4029 50.1961 40.9767 49.586 38.6995M2.36297 51.3522C-0.382615 41.105 1.05481 30.1869 6.35905 20.9994M2.36297 51.3522L32.414 43.3005M6.35905 20.9994C11.6637 11.8123 20.4006 5.10856 30.6478 2.36297M6.35905 20.9994L33.302 36.5554M36.5554 48.698C38.5971 49.8767 41.0233 50.1961 43.3005 49.586M36.5554 48.698C34.5138 47.5192 33.0241 45.5776 32.414 43.3005M30.6478 2.36297L38.6995 32.414M33.302 36.5554C32.1233 38.5971 31.8039 41.0233 32.414 43.3005M33.302 36.5554C34.4808 34.5138 36.4223 33.0241 38.6995 32.414M45.4446 33.302C47.4862 34.4808 48.9759 36.4223 49.586 38.6995M45.4446 33.302C43.4029 32.1233 40.9767 31.8039 38.6995 32.414" stroke="#7E7E7E" stroke-width="2" stroke-linecap="round" stroke-linejoin="round"/>
</svg>
