<svg width="145" height="29" viewBox="0 0 145 29" fill="none" xmlns="http://www.w3.org/2000/svg">
<path d="M6.89574 4.011L18 14.9986L14.5688 18.3971L11.5595 15.4275L0.0222054 4L6.89574 4.011ZM5.9852 20.0689L-2.03972e-06 14.1517L6.58482 14.1517C6.70697 14.1517 6.87353 14.1517 6.96237 14.2287L9.43862 16.6814L12.8698 20.0579L9.43862 23.4675L7.0512 25.8322C6.97347 25.9092 6.89574 26.0191 6.76249 25.9971L0.0222092 25.9971L5.9852 20.0689Z" fill="#C2C2C2"/>
<path d="M40.3016 13.575L49.5766 26H43.8016L35.7516 15.15H29.6266V26H24.5516V1.5H29.6266V12.525H35.4016L43.4516 1.5H49.0516L40.3016 13.575ZM65.1488 10.25H60.9488C59.3622 10.25 58.1488 10.6817 57.3088 11.545C56.4688 12.385 56.0488 13.645 56.0488 15.325V26H51.1488V15.325C51.1488 12.945 51.8955 11.1017 53.3888 9.795C54.9055 8.465 57.0755 7.8 59.8988 7.8H65.1488V10.25ZM71.9602 26H67.0602V8.15H71.9602V26ZM72.1352 3.425C72.1352 4.125 71.8902 4.74333 71.4002 5.28C70.9335 5.79333 70.3035 6.05 69.5102 6.05C68.7168 6.05 68.0752 5.79333 67.5852 5.28C67.1185 4.74333 66.8852 4.125 66.8852 3.425C66.8852 2.725 67.1185 2.11833 67.5852 1.605C68.0752 1.06833 68.7168 0.799999 69.5102 0.799999C70.2802 0.799999 70.9102 1.06833 71.4002 1.605C71.8902 2.11833 72.1352 2.725 72.1352 3.425ZM85.2615 23.55C86.0549 23.55 86.7782 23.4333 87.4315 23.2C88.1082 22.9433 88.6799 22.5467 89.1465 22.01C89.6365 21.4733 90.0099 20.785 90.2665 19.945C90.5465 19.105 90.6865 18.09 90.6865 16.9C90.6865 15.71 90.5465 14.695 90.2665 13.855C90.0099 13.015 89.6365 12.3267 89.1465 11.79C88.6799 11.2533 88.1082 10.8683 87.4315 10.635C86.7782 10.3783 86.0549 10.25 85.2615 10.25H80.8865V23.55H85.2615ZM75.9865 26V1.5H80.8865V7.8H85.2615C86.8715 7.8 88.3299 8.01 89.6365 8.43C90.9665 8.85 92.0982 9.45667 93.0315 10.25C93.9649 11.0433 94.6765 12 95.1665 13.12C95.6799 14.24 95.9365 15.5 95.9365 16.9C95.9365 18.3 95.6799 19.56 95.1665 20.68C94.6765 21.8 93.9649 22.7567 93.0315 23.55C92.0982 24.3433 90.9665 24.95 89.6365 25.37C88.3299 25.79 86.8715 26 85.2615 26H75.9865ZM108.696 24.425C109.443 24.425 110.143 24.285 110.796 24.005C111.45 23.725 112.021 23.2933 112.511 22.71C113.001 22.1033 113.386 21.3217 113.666 20.365C113.97 19.4083 114.121 18.2533 114.121 16.9C114.121 15.5467 113.97 14.3917 113.666 13.435C113.386 12.4783 113.001 11.7083 112.511 11.125C112.021 10.5183 111.45 10.075 110.796 9.795C110.143 9.515 109.443 9.375 108.696 9.375C107.95 9.375 107.25 9.515 106.596 9.795C105.943 10.075 105.371 10.5183 104.881 11.125C104.391 11.7083 103.995 12.4783 103.691 13.435C103.411 14.3917 103.271 15.5467 103.271 16.9C103.271 18.2533 103.411 19.4083 103.691 20.365C103.995 21.3217 104.391 22.1033 104.881 22.71C105.371 23.2933 105.943 23.725 106.596 24.005C107.25 24.285 107.95 24.425 108.696 24.425ZM108.696 7.1C110.26 7.1 111.695 7.32167 113.001 7.765C114.331 8.185 115.463 8.815 116.396 9.655C117.33 10.4717 118.053 11.4983 118.566 12.735C119.103 13.9483 119.371 15.3367 119.371 16.9C119.371 18.4867 119.103 19.8867 118.566 21.1C118.053 22.3133 117.33 23.34 116.396 24.18C115.463 24.9967 114.331 25.615 113.001 26.035C111.695 26.4783 110.26 26.7 108.696 26.7C107.11 26.7 105.663 26.4783 104.356 26.035C103.05 25.615 101.93 24.9967 100.996 24.18C100.063 23.34 99.3282 22.3133 98.7915 21.1C98.2782 19.8867 98.0215 18.4867 98.0215 16.9C98.0215 15.3367 98.2782 13.9483 98.7915 12.735C99.3282 11.4983 100.063 10.4717 100.996 9.655C101.93 8.815 103.05 8.185 104.356 7.765C105.663 7.32167 107.11 7.1 108.696 7.1ZM141.603 26H136.703V14.975C136.703 13.295 136.283 12.0933 135.443 11.37C134.603 10.6233 133.39 10.25 131.803 10.25H127.253V26H122.353V7.8H131.803C135.14 7.8 137.602 8.40667 139.188 9.62C140.798 10.81 141.603 12.595 141.603 14.975V26Z" fill="white"/>
</svg>
