<svg width="82" height="82" viewBox="0 0 82 82" fill="none" xmlns="http://www.w3.org/2000/svg">
<path d="M27.6667 47.6667V34.3333M41 54.3333V27.6667M54.3333 47.6667V34.3333M81 41C81 46.2529 79.9654 51.4543 77.9552 56.3073C75.945 61.1604 72.9986 65.5699 69.2843 69.2843C65.5699 72.9986 61.1604 75.945 56.3073 77.9552C51.4543 79.9654 46.2529 81 41 81C35.7471 81 30.5457 79.9654 25.6927 77.9552C20.8396 75.945 16.4301 72.9986 12.7157 69.2843C9.00138 65.5699 6.05501 61.1604 4.04482 56.3073C2.03463 51.4543 1 46.2529 1 41C1 30.3913 5.21427 20.2172 12.7157 12.7157C20.2172 5.21427 30.3913 1 41 1C51.6087 1 61.7828 5.21427 69.2843 12.7157C76.7857 20.2172 81 30.3913 81 41Z" stroke="#7E7E7E" stroke-width="1.5" stroke-linecap="round" stroke-linejoin="round"/>
</svg>
