<svg width="82" height="82" viewBox="0 0 82 82" fill="none" xmlns="http://www.w3.org/2000/svg">
<path d="M80.9992 63.2216V40.9996C80.9992 35.7468 79.9646 30.5454 77.9544 25.6924C75.9443 20.8394 72.9979 16.4299 69.2836 12.7156C65.5693 9.00131 61.1598 6.05496 56.3068 4.04479C51.4538 2.03462 46.2524 1 40.9996 1C35.7468 1 30.5454 2.03462 25.6924 4.04479C20.8394 6.05496 16.4299 9.00131 12.7156 12.7156C9.00131 16.4299 6.05496 20.8394 4.04479 25.6924C2.03462 30.5454 1 35.7468 1 40.9996V63.2216M58.7772 54.1461C58.7772 51.8751 58.7772 50.7373 59.0394 49.8351C59.6394 47.7551 61.2172 46.1729 63.1727 45.684C68.826 44.2707 69.9726 49.524 74.0304 51.1595L74.337 51.2839C78.7459 53.1373 80.9903 57.8528 80.9814 62.6349V64.2216C80.9681 68.4438 78.7148 72.3771 74.9682 74.3193C70.7949 76.4748 69.4038 82.1059 63.346 80.8081C61.4038 80.3903 59.8039 78.9014 59.1239 76.8837C58.7772 75.857 58.7772 74.5104 58.7772 71.8349V54.1461ZM23.222 72.2971C23.222 74.5682 23.222 75.7015 22.9598 76.6081C22.3598 78.6881 20.782 80.2703 18.8265 80.7592C13.1732 82.1725 12.0266 76.9148 7.96882 75.2837C7.87675 75.2472 7.7849 75.2102 7.69327 75.1726C3.25776 73.3148 1.00889 68.5949 1.01778 63.8083V62.1905C1.03111 57.9861 3.27998 54.0661 7.03105 52.1239C11.2043 49.9684 12.5954 44.3373 18.6532 45.6351C20.5954 46.0529 22.1953 47.5418 22.8753 49.5595C23.222 50.5862 23.222 51.9284 23.222 54.6084V72.2971Z" stroke="#7E7E7E" stroke-width="2" stroke-linecap="round" stroke-linejoin="round"/>
</svg>
