<svg width="90" height="18" viewBox="0 0 90 18" fill="none" xmlns="http://www.w3.org/2000/svg">
<path d="M8.99122 0L11.1138 6.58248H17.9824L12.4256 10.6507L14.5481 17.2332L8.99122 13.165L3.43434 17.2332L5.55688 10.6507L0 6.58248H6.86868L8.99122 0Z" fill="#FF9C2C"/>
<path d="M44.9561 0L47.0786 6.58248H53.9473L48.3904 10.6507L50.5129 17.2332L44.9561 13.165L39.3992 17.2332L41.5217 10.6507L35.9648 6.58248H42.8335L44.9561 0Z" fill="#FF9C2C"/>
<path d="M26.9717 0L29.0942 6.58248H35.9629L30.406 10.6507L32.5286 17.2332L26.9717 13.165L21.4148 17.2332L23.5373 10.6507L17.9805 6.58248H24.8491L26.9717 0Z" fill="#FF9C2C"/>
<path d="M62.9385 0L65.061 6.58248H71.9297L66.3728 10.6507L68.4954 17.2332L62.9385 13.165L57.3816 17.2332L59.5041 10.6507L53.9473 6.58248H60.8159L62.9385 0Z" fill="#FF9C2C"/>
<path d="M80.9209 0L83.0434 6.58248H89.9121L84.3552 10.6507L86.4778 17.2332L80.9209 13.165L75.364 17.2332L77.4866 10.6507L71.9297 6.58248H78.7984L80.9209 0Z" fill="#FF9C2C"/>
</svg>
