<svg width="47" height="38" viewBox="0 0 47 38" fill="none" xmlns="http://www.w3.org/2000/svg">
<path d="M26.9401 35.2905L28.6455 38C40.4448 29.8043 47 19.8464 47 11.6508C47 3.72609 41.3615 3.32176e-06 36.5768 2.90347e-06C30.546 2.37624e-06 26.2857 5.28458 26.2857 10.8379C26.2857 15.5113 29.17 19.5083 33.038 20.9996C34.1519 21.4071 35.2007 21.7452 35.2007 23.7091C35.2007 26.2148 33.4303 29.9387 26.9401 35.2905ZM0.916668 35.2905L2.62206 38C14.2913 29.8043 20.9765 19.8464 20.9765 11.6508C20.9765 3.72608 15.208 1.03535e-06 10.4232 6.17054e-07C4.32745 8.41444e-08 -4.76932e-06 5.28458 -5.25481e-06 10.8379C-5.66337e-06 15.5113 2.94929 19.5083 6.94952 20.9996C8.06337 21.4071 9.04717 21.7452 9.04717 23.7091C9.04717 26.2148 7.21172 29.9409 0.918766 35.2927L0.916668 35.2905Z" fill="#5C5C5C"/>
</svg>
