<svg width="1920" height="820" viewBox="0 0 1920 820" fill="none" xmlns="http://www.w3.org/2000/svg">
<path fill-rule="evenodd" clip-rule="evenodd" d="M1920 0H0V820H1920V0ZM782 5C770.954 5 762 13.9541 762 25V446C762 457.046 770.954 466 782 466H1100C1111.05 466 1120 457.046 1120 446V25C1120 13.9541 1111.05 5 1100 5H782ZM782 476C770.954 476 762 484.954 762 496V795C762 806.046 770.954 815 782 815H1100C1111.05 815 1120 806.046 1120 795V496C1120 484.954 1111.05 476 1100 476H782ZM29 164C29 152.954 37.9541 144 49 144H393C404.046 144 413 152.954 413 164V762C413 773.046 404.046 782 393 782H49C37.9541 782 29 773.046 29 762V164ZM443 310C431.954 310 423 318.954 423 330V661C423 672.046 431.954 681 443 681H732C743.046 681 752 672.046 752 661V330C752 318.954 743.046 310 732 310H443ZM1130 186C1130 174.954 1138.95 166 1150 166H1485C1496.05 166 1505 174.954 1505 186V697C1505 708.046 1496.05 717 1485 717H1150C1138.95 717 1130 708.046 1130 697V186ZM1535 298C1523.95 298 1515 306.954 1515 318V612C1515 623.046 1523.95 632 1535 632H1870C1881.05 632 1890 623.046 1890 612V318C1890 306.954 1881.05 298 1870 298H1535Z" fill="#070616"/>
</svg>
