<svg width="16" height="16" viewBox="0 0 16 16" fill="none" xmlns="http://www.w3.org/2000/svg">
<path d="M11.3467 1H4.65333C2.63565 1 1 2.63565 1 4.65333V11.3467C1 13.3643 2.63565 15 4.65333 15H11.3467C13.3643 15 15 13.3643 15 11.3467V4.65333C15 2.63565 13.3643 1 11.3467 1Z" stroke="#0E0D26" stroke-linecap="round" stroke-linejoin="round"/>
<path d="M8 11.6667C10.025 11.6667 11.6667 10.025 11.6667 8C11.6667 5.97496 10.025 4.33333 8 4.33333C5.97496 4.33333 4.33333 5.97496 4.33333 8C4.33333 10.025 5.97496 11.6667 8 11.6667Z" stroke="#0E0D26" stroke-linecap="round" stroke-linejoin="round"/>
<path d="M12 3.66667C12.1841 3.66667 12.3333 3.51743 12.3333 3.33333C12.3333 3.14924 12.1841 3 12 3C11.8159 3 11.6667 3.14924 11.6667 3.33333C11.6667 3.51743 11.8159 3.66667 12 3.66667Z" stroke="#0E0D26" stroke-linecap="round" stroke-linejoin="round"/>
</svg>
