<svg width="140" height="41" viewBox="0 0 140 41" fill="none" xmlns="http://www.w3.org/2000/svg">
<path d="M13.825 9.94C16.135 9.94 18.2233 10.4767 20.09 11.55C21.98 12.6233 23.4617 14.1283 24.535 16.065C25.6317 17.9783 26.18 20.1483 26.18 22.575C26.18 25.0017 25.6317 27.1833 24.535 29.12C23.4617 31.0567 21.98 32.5617 20.09 33.635C18.2233 34.7083 16.135 35.245 13.825 35.245C11.515 35.245 9.415 34.7083 7.525 33.635C5.65833 32.5617 4.17667 31.0567 3.08 29.12C2.00667 27.1833 1.47 25.0017 1.47 22.575C1.47 20.1483 2.00667 17.9783 3.08 16.065C4.17667 14.1283 5.65833 12.6233 7.525 11.55C9.415 10.4767 11.515 9.94 13.825 9.94ZM13.825 14.49C12.3783 14.49 11.1067 14.8167 10.01 15.47C8.91333 16.1233 8.05 17.0683 7.42 18.305C6.81333 19.5183 6.51 20.9417 6.51 22.575C6.51 24.2083 6.81333 25.6433 7.42 26.88C8.05 28.0933 8.91333 29.0267 10.01 29.68C11.1067 30.3333 12.3783 30.66 13.825 30.66C15.2717 30.66 16.5433 30.3333 17.64 29.68C18.7367 29.0267 19.5883 28.0933 20.195 26.88C20.825 25.6433 21.14 24.2083 21.14 22.575C21.14 20.9417 20.825 19.5183 20.195 18.305C19.5883 17.0683 18.7367 16.1233 17.64 15.47C16.5433 14.8167 15.2717 14.49 13.825 14.49ZM48.7214 35H43.7864L32.7264 18.2V35H27.7914V10.29H32.7264L43.7864 27.23V10.29H48.7214V35ZM55.8469 10.29V24.78C55.8469 26.7167 56.2669 28.175 57.1069 29.155C57.9702 30.1117 59.2069 30.59 60.8169 30.59C62.4035 30.59 63.6169 30.1117 64.4569 29.155C65.3202 28.175 65.7519 26.7167 65.7519 24.78V10.29H70.6519V24.78C70.6519 27.0667 70.2202 29.0033 69.3569 30.59C68.5169 32.1533 67.3385 33.32 65.8219 34.09C64.3285 34.86 62.6252 35.245 60.7119 35.245C57.7485 35.245 55.3802 34.3583 53.6069 32.585C51.8335 30.8117 50.9469 28.21 50.9469 24.78V10.29H55.8469ZM84.0435 10.045C87.1235 10.045 89.6785 10.8383 91.7085 12.425C93.7385 14.0117 95.0801 16.17 95.7335 18.9H90.5535C90.0168 17.57 89.1768 16.52 88.0335 15.75C86.9135 14.98 85.5601 14.595 83.9735 14.595C82.6668 14.595 81.4885 14.9217 80.4385 15.575C79.3885 16.2283 78.5718 17.1617 77.9885 18.375C77.4051 19.5883 77.1135 21.0117 77.1135 22.645C77.1135 24.255 77.4051 25.6667 77.9885 26.88C78.5718 28.0933 79.3885 29.0267 80.4385 29.68C81.4885 30.3333 82.6668 30.66 83.9735 30.66C85.5601 30.66 86.9135 30.275 88.0335 29.505C89.1768 28.735 90.0168 27.685 90.5535 26.355H95.7335C95.0801 29.085 93.7385 31.2433 91.7085 32.83C89.6785 34.4167 87.1235 35.21 84.0435 35.21C81.6868 35.21 79.5985 34.685 77.7785 33.635C75.9818 32.5617 74.5818 31.0683 73.5785 29.155C72.5985 27.2417 72.1085 25.0717 72.1085 22.645C72.1085 20.195 72.5985 18.0133 73.5785 16.1C74.5818 14.1867 75.9818 12.705 77.7785 11.655C79.5751 10.5817 81.6635 10.045 84.0435 10.045ZM102.096 10.29V24.78C102.096 26.7167 102.516 28.175 103.356 29.155C104.219 30.1117 105.456 30.59 107.066 30.59C108.653 30.59 109.866 30.1117 110.706 29.155C111.569 28.175 112.001 26.7167 112.001 24.78V10.29H116.901V24.78C116.901 27.0667 116.469 29.0033 115.606 30.59C114.766 32.1533 113.588 33.32 112.071 34.09C110.578 34.86 108.874 35.245 106.961 35.245C103.998 35.245 101.629 34.3583 99.8561 32.585C98.0828 30.8117 97.1961 28.21 97.1961 24.78V10.29H102.096ZM132.918 22.26C134.411 22.5633 135.601 23.275 136.488 24.395C137.398 25.4917 137.853 26.7867 137.853 28.28C137.853 30.3567 137.153 32.0017 135.753 33.215C134.376 34.405 132.369 35 129.733 35H119.128V10.29H129.523C132.019 10.29 133.933 10.8383 135.263 11.935C136.616 13.0317 137.293 14.5717 137.293 16.555C137.293 18.095 136.884 19.355 136.068 20.335C135.274 21.315 134.224 21.9567 132.918 22.26ZM124.063 20.65H128.508C129.744 20.65 130.678 20.3817 131.308 19.845C131.961 19.285 132.288 18.4917 132.288 17.465C132.288 16.4383 131.973 15.645 131.343 15.085C130.713 14.525 129.744 14.245 128.438 14.245H124.063V20.65ZM128.753 30.975C130.059 30.975 131.063 30.695 131.763 30.135C132.463 29.5517 132.813 28.7117 132.813 27.615C132.813 26.5183 132.451 25.6783 131.728 25.095C131.028 24.4883 130.024 24.185 128.718 24.185H124.063V30.975H128.753Z" fill="white"/>
<rect x="2.90039" y="38" width="134" height="3" fill="white"/>
<rect x="2.90039" width="134" height="3" fill="white"/>
<rect x="2.90039" y="4" width="19" height="3" fill="white"/>
<rect x="25.9004" y="4" width="17" height="3" fill="white"/>
<rect x="47.9004" y="4" width="7" height="3" fill="white"/>
<rect x="58.9004" y="4" width="9" height="3" fill="white"/>
<rect x="71.9004" y="4" width="17" height="3" fill="white"/>
<rect x="91.9004" y="4" width="45" height="3" fill="white"/>
</svg>
