<svg width="118" height="32" viewBox="0 0 118 32" fill="none" xmlns="http://www.w3.org/2000/svg">
<path d="M1.71661 16V1.006H5.03461V13.228H16.6266V16H1.71661ZM21.9593 6.97H32.9423V9.49H21.9593V13.354H33.5933V16H18.6413V1.006H33.3203V3.652H21.9593V6.97ZM47.5936 5.542C47.5236 4.632 47.0966 3.995 46.3126 3.631C45.5426 3.267 44.4436 3.085 43.0156 3.085C40.3416 3.085 39.0046 3.729 39.0046 5.017C39.0046 5.535 39.1866 5.906 39.5506 6.13C39.9146 6.354 40.5026 6.508 41.3146 6.592L46.9846 7.096C48.5526 7.236 49.7496 7.649 50.5756 8.335C51.4016 9.007 51.8146 10.064 51.8146 11.506C51.8146 13.298 51.0936 14.565 49.6516 15.307C48.2096 16.049 46.0816 16.42 43.2676 16.42C40.5376 16.42 38.4516 16.021 37.0096 15.223C35.5676 14.411 34.8186 12.99 34.7626 10.96H38.4796C38.5636 12.08 39.0116 12.85 39.8236 13.27C40.6496 13.676 41.8396 13.879 43.3936 13.879C46.4596 13.879 47.9926 13.165 47.9926 11.737C47.9926 11.121 47.7966 10.68 47.4046 10.414C47.0266 10.148 46.4666 9.98 45.7246 9.91L40.0756 9.343C38.4936 9.189 37.2896 8.797 36.4636 8.167C35.6516 7.537 35.2456 6.557 35.2456 5.227C35.2456 2.133 37.8636 0.585999 43.0996 0.585999C45.6476 0.585999 47.6356 0.964 49.0636 1.72C50.5056 2.476 51.2546 3.75 51.3106 5.542H47.5936ZM65.5231 5.542C65.4531 4.632 65.0261 3.995 64.2421 3.631C63.4721 3.267 62.3731 3.085 60.9451 3.085C58.2711 3.085 56.9341 3.729 56.9341 5.017C56.9341 5.535 57.1161 5.906 57.4801 6.13C57.8441 6.354 58.4321 6.508 59.2441 6.592L64.9141 7.096C66.4821 7.236 67.6791 7.649 68.5051 8.335C69.3311 9.007 69.7441 10.064 69.7441 11.506C69.7441 13.298 69.0231 14.565 67.5811 15.307C66.1391 16.049 64.0111 16.42 61.1971 16.42C58.4671 16.42 56.3811 16.021 54.9391 15.223C53.4971 14.411 52.7481 12.99 52.6921 10.96H56.4091C56.4931 12.08 56.9411 12.85 57.7531 13.27C58.5791 13.676 59.7691 13.879 61.3231 13.879C64.3891 13.879 65.9221 13.165 65.9221 11.737C65.9221 11.121 65.7261 10.68 65.3341 10.414C64.9561 10.148 64.3961 9.98 63.6541 9.91L58.0051 9.343C56.4231 9.189 55.2191 8.797 54.3931 8.167C53.5811 7.537 53.1751 6.557 53.1751 5.227C53.1751 2.133 55.7931 0.585999 61.0291 0.585999C63.5771 0.585999 65.5651 0.964 66.9931 1.72C68.4351 2.476 69.1841 3.75 69.2401 5.542H65.5231ZM71.6507 16V1.006H74.9687V16H71.6507ZM86.4457 0.585999C89.3857 0.585999 91.7027 1.258 93.3967 2.602C95.0907 3.932 95.9377 5.899 95.9377 8.503C95.9377 11.107 95.0907 13.081 93.3967 14.425C91.7027 15.755 89.3857 16.42 86.4457 16.42C83.5057 16.42 81.1887 15.755 79.4947 14.425C77.8007 13.081 76.9537 11.107 76.9537 8.503C76.9537 5.899 77.8007 3.932 79.4947 2.602C81.1887 1.258 83.5057 0.585999 86.4457 0.585999ZM86.4457 13.648C88.2937 13.648 89.7287 13.214 90.7507 12.346C91.7727 11.478 92.2837 10.197 92.2837 8.503C92.2837 6.809 91.7727 5.528 90.7507 4.66C89.7287 3.792 88.2937 3.358 86.4457 3.358C84.5977 3.358 83.1627 3.792 82.1407 4.66C81.1187 5.528 80.6077 6.809 80.6077 8.503C80.6077 10.197 81.1187 11.478 82.1407 12.346C83.1627 13.214 84.5977 13.648 86.4457 13.648ZM114.67 1.006V16H110.89L101.188 5.059H101.083V16H97.9327V1.006H101.818L111.415 11.821H111.52V1.006H114.67Z" fill="white"/>
<path d="M34.9196 24.992V27.116H41.1956V28.604H34.9196V32H33.0236V23.432H41.4356V24.992H34.9196ZM44.1728 32V23.432H46.0688V32H44.1728ZM57.2831 27.416C57.6911 27.544 58.0111 27.772 58.2431 28.1C58.4831 28.42 58.6031 28.9 58.6031 29.54C58.6031 30.372 58.3671 30.992 57.8951 31.4C57.4231 31.8 56.6791 32 55.6631 32H49.1111V23.432H55.5311C57.3791 23.432 58.3031 24.168 58.3031 25.64C58.3031 26.096 58.2151 26.468 58.0391 26.756C57.8631 27.044 57.6111 27.244 57.2831 27.356V27.416ZM55.0751 26.9C55.4751 26.9 55.7671 26.82 55.9511 26.66C56.1431 26.492 56.2391 26.236 56.2391 25.892C56.2391 25.54 56.1431 25.284 55.9511 25.124C55.7671 24.964 55.4751 24.884 55.0751 24.884H51.0071V26.9H55.0751ZM55.1951 30.548C55.6591 30.548 55.9951 30.456 56.2031 30.272C56.4191 30.088 56.5271 29.796 56.5271 29.396C56.5271 28.996 56.4191 28.704 56.2031 28.52C55.9951 28.328 55.6591 28.232 55.1951 28.232H51.0071V30.548H55.1951ZM63.211 26.84H69.487V28.28H63.211V30.488H69.859V32H61.315V23.432H69.703V24.944H63.211V26.84ZM84.1232 32H82.2272V25.256H82.1672L79.1672 32H77.5952L74.5472 25.16H74.4872V32H72.6752V23.432H75.7232L78.3632 29.504H78.4112L81.0272 23.432H84.1232V32Z" fill="white"/>
</svg>
