<svg width="131" height="40" viewBox="0 0 131 40" fill="none" xmlns="http://www.w3.org/2000/svg">
<path d="M63.2596 18.61C59.2036 19.0433 55.4769 19.26 52.0796 19.26C50.3809 19.26 49.1329 18.8613 48.3356 18.064C47.5383 17.2667 47.1396 16.0187 47.1396 14.32V6C47.1396 4.18 47.5469 2.86267 48.3616 2.048C49.1936 1.216 50.5196 0.799999 52.3396 0.799999H61.6996V4.44H53.3796C52.3396 4.44 51.8196 4.96 51.8196 6V14.32C51.8196 14.7187 51.9323 15.0393 52.1576 15.282C52.4003 15.5073 52.7209 15.62 53.1196 15.62C55.1129 15.62 56.9329 15.5767 58.5796 15.49V11.72H55.1996V8.6H63.2596V18.61ZM70.5447 5.74V19H65.9947V9.25H64.0447V5.74H70.5447ZM65.9947 0.539999H70.5447V4.18H65.9947V0.539999ZM71.8528 15.36C75.3715 15.62 78.1448 15.75 80.1728 15.75C80.4328 15.75 80.6495 15.6633 80.8228 15.49C80.9961 15.3167 81.0828 15.1 81.0828 14.84V13.93H75.4928C74.3141 13.93 73.3695 13.5747 72.6588 12.864C71.9481 12.1533 71.5928 11.2087 71.5928 10.03V9.12C71.5928 7.94133 71.9481 6.99667 72.6588 6.286C73.3695 5.57533 74.3141 5.22 75.4928 5.22H84.3328V8.6H77.0528C76.7928 8.6 76.5761 8.68667 76.4028 8.86C76.2295 9.03333 76.1428 9.25 76.1428 9.51C76.1428 9.77 76.2295 9.98667 76.4028 10.16C76.5761 10.3333 76.7928 10.42 77.0528 10.42H81.7328C82.9115 10.42 83.8561 10.7753 84.5668 11.486C85.2775 12.1967 85.6328 13.1413 85.6328 14.32V15.36C85.6328 16.5387 85.2775 17.4833 84.5668 18.194C83.8561 18.9047 82.9115 19.26 81.7328 19.26C78.6648 19.26 75.3715 19.0867 71.8528 18.74V15.36ZM86.1548 15.36C89.6735 15.62 92.4468 15.75 94.4748 15.75C94.7348 15.75 94.9515 15.6633 95.1248 15.49C95.2982 15.3167 95.3848 15.1 95.3848 14.84V13.93H89.7948C88.6162 13.93 87.6715 13.5747 86.9608 12.864C86.2502 12.1533 85.8948 11.2087 85.8948 10.03V9.12C85.8948 7.94133 86.2502 6.99667 86.9608 6.286C87.6715 5.57533 88.6162 5.22 89.7948 5.22H98.6348V8.6H91.3548C91.0948 8.6 90.8782 8.68667 90.7048 8.86C90.5315 9.03333 90.4448 9.25 90.4448 9.51C90.4448 9.77 90.5315 9.98667 90.7048 10.16C90.8782 10.3333 91.0948 10.42 91.3548 10.42H96.0348C97.2135 10.42 98.1582 10.7753 98.8688 11.486C99.5795 12.1967 99.9348 13.1413 99.9348 14.32V15.36C99.9348 16.5387 99.5795 17.4833 98.8688 18.194C98.1582 18.9047 97.2135 19.26 96.0348 19.26C92.9668 19.26 89.6735 19.0867 86.1548 18.74V15.36ZM107.347 15.49C108.266 15.49 109.306 15.3167 110.467 14.97V5.22H115.017V19H110.987L110.727 17.7C109.912 18.2373 109.072 18.636 108.205 18.896C107.356 19.1387 106.636 19.26 106.047 19.26H104.877C103.698 19.26 102.754 18.9047 102.043 18.194C101.332 17.4833 100.977 16.5387 100.977 15.36V5.22H105.527V14.58C105.527 14.84 105.614 15.0567 105.787 15.23C105.96 15.4033 106.177 15.49 106.437 15.49H107.347ZM51.8596 38H47.5396V21.2H60.8596V24.56H51.8596V28.52H58.9396V31.88H51.8596V38ZM68.0596 38C66.9876 38.16 65.9636 38.24 64.9876 38.24C64.0276 38.24 63.2196 37.912 62.5636 37.256C61.9076 36.6 61.5796 35.728 61.5796 34.64V21.2H65.7796V34.04C65.7796 34.28 65.8596 34.48 66.0196 34.64C66.1796 34.8 66.3796 34.88 66.6196 34.88H68.0596V38ZM81.9759 34.4C81.9759 35.6 81.6319 36.544 80.9439 37.232C80.2719 37.904 79.3359 38.24 78.1359 38.24H72.6159C71.4159 38.24 70.4719 37.904 69.7839 37.232C69.1119 36.544 68.7759 35.6 68.7759 34.4V28.88C68.7759 27.68 69.1119 26.744 69.7839 26.072C70.4719 25.384 71.4159 25.04 72.6159 25.04H78.1359C79.3359 25.04 80.2719 25.384 80.9439 26.072C81.6319 26.744 81.9759 27.68 81.9759 28.88V34.4ZM77.7759 29.24C77.7759 28.6 77.4559 28.28 76.8159 28.28H73.9359C73.2959 28.28 72.9759 28.6 72.9759 29.24V34.04C72.9759 34.68 73.2959 35 73.9359 35H76.8159C77.4559 35 77.7759 34.68 77.7759 34.04V29.24ZM90.733 28.76C89.725 28.76 88.685 29 87.613 29.48V38H83.413V25.28H87.133L87.373 26.84C88.749 25.64 90.189 25.04 91.693 25.04H92.773V28.76H90.733ZM99.0121 25.76V38H94.8121V29H93.0121V25.76H99.0121ZM94.8121 20.96H99.0121V24.32H94.8121V20.96ZM113.66 34.4C113.66 35.6 113.316 36.544 112.628 37.232C111.956 37.904 111.02 38.24 109.82 38.24H104.3C103.1 38.24 102.156 37.904 101.468 37.232C100.796 36.544 100.46 35.6 100.46 34.4V28.88C100.46 27.68 100.796 26.744 101.468 26.072C102.156 25.384 103.1 25.04 104.3 25.04H109.82C111.02 25.04 111.956 25.384 112.628 26.072C113.316 26.744 113.66 27.68 113.66 28.88V34.4ZM109.46 29.24C109.46 28.6 109.14 28.28 108.5 28.28H105.62C104.98 28.28 104.66 28.6 104.66 29.24V34.04C104.66 34.68 104.98 35 105.62 35H108.5C109.14 35 109.46 34.68 109.46 34.04V29.24ZM120.977 34.76C121.825 34.76 122.785 34.6 123.857 34.28V25.28H128.057V38H124.337L124.097 36.8C123.345 37.296 122.569 37.664 121.769 37.904C120.985 38.128 120.321 38.24 119.777 38.24H118.697C117.609 38.24 116.737 37.912 116.081 37.256C115.425 36.6 115.097 35.728 115.097 34.64V25.28H119.297V33.92C119.297 34.16 119.377 34.36 119.537 34.52C119.697 34.68 119.897 34.76 120.137 34.76H120.977Z" fill="white"/>
<path d="M18.0996 37L33.4582 29.0512C34.0551 28.7414 34.3535 28.5884 34.5707 28.3598C34.7631 28.1592 34.9089 27.9186 34.9976 27.6552C35.0996 27.3549 35.0996 27.0205 35.0996 26.348V11.5611M18.0996 37L2.74105 29.0512C2.14416 28.7414 1.84572 28.5884 1.6285 28.3598C1.43654 28.1589 1.29084 27.9184 1.20161 27.6552C1.09961 27.3549 1.09961 27.0186 1.09961 26.3443V11.5611M18.0996 37V19.8802M35.0996 11.5611L18.0996 19.8802M35.0996 11.5611L26.5996 7.15979M1.09961 11.5611L16.7188 3.47816C17.2251 3.21749 17.4763 3.08526 17.7426 3.03425C17.9784 2.98858 18.2208 2.98858 18.4566 3.03425C18.7211 3.08526 18.9742 3.21749 19.4785 3.47816L26.5996 7.15979M1.09961 11.5611L9.59961 15.7225M18.0996 19.8802L9.59961 15.7206M26.5996 7.15979L9.59961 15.7206M9.59961 15.7206V19.8802" stroke="white" stroke-width="2" stroke-linecap="round" stroke-linejoin="round"/>
</svg>
