<svg width="157" height="40" viewBox="0 0 157 40" fill="none" xmlns="http://www.w3.org/2000/svg">
<circle cx="20" cy="20" r="20" fill="white"/>
<path d="M12.1211 19.7092L27.9211 10.9092V17.9092L12.1211 26.9092V19.7092Z" fill="#070616"/>
<path d="M27.9219 21.4362L12.1219 12.6362V19.6362L27.9219 28.6362V21.4362Z" fill="#070616"/>
<path d="M65.93 21.919C64.85 21.919 64.013 21.811 63.392 21.595C62.771 21.352 62.285 20.974 61.88 20.407L57.263 11.902L56.129 12.955V21.865L55.346 21.892C54.428 21.892 53.726 21.811 53.213 21.649C52.322 21.379 51.89 20.839 51.89 20.083V3.019L52.943 2.992C55.076 2.992 56.129 3.586 56.129 4.801V12.388L65.903 3.181C66.011 3.073 66.173 2.992 66.362 2.992C66.47 2.992 66.578 3.019 66.686 3.046L60.503 8.878L67.55 21.865C67.01 21.892 66.47 21.919 65.93 21.919ZM82.1589 21.946C81.9969 21.946 81.7269 21.946 81.2949 21.919C80.8629 21.892 80.3499 21.784 79.7559 21.541C79.1349 21.325 78.7029 21.001 78.4599 20.569L74.1129 12.415H72.1149V21.865L71.3319 21.892C70.4139 21.892 69.7119 21.811 69.1989 21.649C68.3079 21.379 67.8759 20.866 67.8759 20.083V3.019C73.0869 3.019 76.0299 3.046 76.7319 3.073C80.1879 3.316 81.9699 4.774 82.0239 7.474C82.0239 8.365 81.8619 9.121 81.5109 9.715C81.1599 10.336 80.6739 10.822 80.0799 11.173C79.4859 11.551 78.8109 11.821 78.0819 12.01L83.4549 21.838C83.0769 21.919 82.6449 21.946 82.1589 21.946ZM74.2479 11.983C75.4359 11.983 76.3539 11.524 77.0289 10.579C77.5959 9.769 77.8929 8.77 77.8929 7.609C77.8929 6.799 77.7309 6.043 77.4339 5.368C76.8129 4.099 75.7599 3.451 74.2479 3.451H72.1149V11.983H74.2479ZM96.7281 21.865L84.4971 21.838V3.019H96.7281C96.7281 3.289 96.5661 3.451 96.2961 3.451H88.7361V12.253H93.8661V12.685H88.7361V21.433C93.8931 21.433 96.5121 21.46 96.5931 21.541C96.6741 21.595 96.7281 21.703 96.7281 21.865ZM113.09 21.811C112.118 21.811 111.389 21.676 110.849 21.406C110.336 21.109 109.958 20.65 109.769 19.975L107.825 14.332H100.481C98.8344 19.192 97.9704 21.676 97.8894 21.703C97.8084 21.757 97.7004 21.784 97.5114 21.784L103.91 2.938H104.315C104.72 2.911 105.152 2.884 105.611 2.884C107.42 2.938 108.5 3.532 108.824 4.72L114.683 21.757C114.143 21.784 113.603 21.811 113.09 21.811ZM107.744 13.954L104.207 3.64L100.697 13.954H107.744ZM122.416 21.865H121.822C120.958 21.865 120.283 21.811 119.824 21.703C118.798 21.487 118.177 20.947 117.907 20.083L112.048 3.019C112.615 2.992 113.317 2.965 114.154 2.965C115.666 2.992 116.611 3.613 116.962 4.801C118.852 10.255 120.742 15.709 122.605 21.19C126.682 9.148 128.761 3.127 128.842 3.073C128.923 3.019 129.058 2.992 129.247 2.992L122.821 21.838L122.416 21.865ZM133.298 21.892C132.38 21.892 131.678 21.811 131.165 21.649C130.274 21.379 129.842 20.839 129.842 20.083V3.019L130.895 2.992C133.028 2.992 134.081 3.586 134.081 4.801V21.865L133.298 21.892ZM152.606 21.919C151.661 21.919 150.932 21.784 150.365 21.541C149.906 21.352 149.474 20.974 149.123 20.461C148.34 19.246 144.776 13.576 138.431 3.451V21.838C138.134 21.838 137.999 21.73 137.999 21.514V3.019C138.836 2.884 139.646 2.83 140.402 2.83C142.103 2.83 143.237 3.316 143.804 4.315L153.686 20.083V3.37C153.686 3.127 153.821 3.019 154.118 3.019V21.838C153.362 21.892 152.849 21.919 152.606 21.919Z" fill="white"/>
<path d="M58.232 35.26H53.096L52.232 37H50.156L54.524 28.432H56.864L61.208 37H59.096L58.232 35.26ZM57.488 33.76L55.688 30.136H55.64L53.84 33.76H57.488ZM72.9995 37H71.5235V35.812C71.1555 36.3 70.6755 36.66 70.0835 36.892C69.4995 37.124 68.7995 37.24 67.9835 37.24C66.2635 37.24 64.9115 36.86 63.9275 36.1C62.9515 35.34 62.4635 34.212 62.4635 32.716C62.4635 31.22 62.9435 30.092 63.9035 29.332C64.8635 28.572 66.1915 28.192 67.8875 28.192C69.4875 28.192 70.6995 28.476 71.5235 29.044C72.3555 29.612 72.8275 30.364 72.9395 31.3H70.7195C70.6235 30.884 70.3595 30.528 69.9275 30.232C69.4955 29.928 68.8155 29.776 67.8875 29.776C66.8315 29.776 66.0115 30.024 65.4275 30.52C64.8435 31.016 64.5515 31.748 64.5515 32.716C64.5515 33.7 64.8475 34.444 65.4395 34.948C66.0315 35.444 66.8795 35.692 67.9835 35.692C68.8955 35.692 69.5795 35.516 70.0355 35.164C70.4995 34.804 70.7675 34.34 70.8395 33.772H68.1275V32.368H72.9995V37ZM77.9309 31.84H84.2069V33.28H77.9309V35.488H84.5789V37H76.0349V28.432H84.4229V29.944H77.9309V31.84ZM96.9591 28.432V37H94.7991L89.2551 30.748H89.1951V37H87.3951V28.432H89.6151L95.0991 34.612H95.1591V28.432H96.9591ZM109.573 28.432V37H107.413L101.869 30.748H101.809V37H100.009V28.432H102.229L107.713 34.612H107.773V28.432H109.573ZM117.699 28.192C119.379 28.192 120.703 28.576 121.671 29.344C122.639 30.104 123.123 31.228 123.123 32.716C123.123 34.204 122.639 35.332 121.671 36.1C120.703 36.86 119.379 37.24 117.699 37.24C116.019 37.24 114.695 36.86 113.727 36.1C112.759 35.332 112.275 34.204 112.275 32.716C112.275 31.228 112.759 30.104 113.727 29.344C114.695 28.576 116.019 28.192 117.699 28.192ZM117.699 35.656C118.755 35.656 119.575 35.408 120.159 34.912C120.743 34.416 121.035 33.684 121.035 32.716C121.035 31.748 120.743 31.016 120.159 30.52C119.575 30.024 118.755 29.776 117.699 29.776C116.643 29.776 115.823 30.024 115.239 30.52C114.655 31.016 114.363 31.748 114.363 32.716C114.363 33.684 114.655 34.416 115.239 34.912C115.823 35.408 116.643 35.656 117.699 35.656Z" fill="#B3B3B3"/>
</svg>
