<svg width="145" height="29" viewBox="0 0 145 29" fill="none" xmlns="http://www.w3.org/2000/svg">
<path d="M6.89574 4.011L18 14.9986L14.5688 18.3971L11.5595 15.4275L0.0222052 4L6.89574 4.011ZM5.9852 20.0689L-2.02884e-06 14.1517L6.58482 14.1517C6.70697 14.1517 6.87353 14.1517 6.96237 14.2287L9.43862 16.6814L12.8698 20.0579L9.43862 23.4675L7.0512 25.8322C6.97347 25.9092 6.89574 26.0191 6.76249 25.9971L0.0222091 25.9971L5.9852 20.0689Z" fill="white"/>
<path d="M40.2996 13.575L49.5746 26H43.7996L35.7496 15.15H29.6246V26H24.5496V1.5H29.6246V12.525H35.3996L43.4496 1.5H49.0496L40.2996 13.575ZM65.1469 10.25H60.9469C59.3602 10.25 58.1469 10.6817 57.3069 11.545C56.4669 12.385 56.0469 13.645 56.0469 15.325V26H51.1469V15.325C51.1469 12.945 51.8935 11.1017 53.3869 9.795C54.9035 8.465 57.0735 7.8 59.8969 7.8H65.1469V10.25ZM71.9582 26H67.0582V8.15H71.9582V26ZM72.1332 3.425C72.1332 4.125 71.8882 4.74333 71.3982 5.28C70.9315 5.79333 70.3015 6.05 69.5082 6.05C68.7149 6.05 68.0732 5.79333 67.5832 5.28C67.1165 4.74333 66.8832 4.125 66.8832 3.425C66.8832 2.725 67.1165 2.11833 67.5832 1.605C68.0732 1.06833 68.7149 0.799999 69.5082 0.799999C70.2782 0.799999 70.9082 1.06833 71.3982 1.605C71.8882 2.11833 72.1332 2.725 72.1332 3.425ZM85.2596 23.55C86.0529 23.55 86.7762 23.4333 87.4296 23.2C88.1062 22.9433 88.6779 22.5467 89.1446 22.01C89.6346 21.4733 90.0079 20.785 90.2646 19.945C90.5446 19.105 90.6846 18.09 90.6846 16.9C90.6846 15.71 90.5446 14.695 90.2646 13.855C90.0079 13.015 89.6346 12.3267 89.1446 11.79C88.6779 11.2533 88.1062 10.8683 87.4296 10.635C86.7762 10.3783 86.0529 10.25 85.2596 10.25H80.8846V23.55H85.2596ZM75.9846 26V1.5H80.8846V7.8H85.2596C86.8696 7.8 88.3279 8.01 89.6346 8.43C90.9646 8.85 92.0962 9.45667 93.0296 10.25C93.9629 11.0433 94.6746 12 95.1646 13.12C95.6779 14.24 95.9346 15.5 95.9346 16.9C95.9346 18.3 95.6779 19.56 95.1646 20.68C94.6746 21.8 93.9629 22.7567 93.0296 23.55C92.0962 24.3433 90.9646 24.95 89.6346 25.37C88.3279 25.79 86.8696 26 85.2596 26H75.9846ZM108.695 24.425C109.441 24.425 110.141 24.285 110.795 24.005C111.448 23.725 112.02 23.2933 112.51 22.71C113 22.1033 113.385 21.3217 113.665 20.365C113.968 19.4083 114.12 18.2533 114.12 16.9C114.12 15.5467 113.968 14.3917 113.665 13.435C113.385 12.4783 113 11.7083 112.51 11.125C112.02 10.5183 111.448 10.075 110.795 9.795C110.141 9.515 109.441 9.375 108.695 9.375C107.948 9.375 107.248 9.515 106.595 9.795C105.941 10.075 105.37 10.5183 104.88 11.125C104.39 11.7083 103.993 12.4783 103.69 13.435C103.41 14.3917 103.27 15.5467 103.27 16.9C103.27 18.2533 103.41 19.4083 103.69 20.365C103.993 21.3217 104.39 22.1033 104.88 22.71C105.37 23.2933 105.941 23.725 106.595 24.005C107.248 24.285 107.948 24.425 108.695 24.425ZM108.695 7.1C110.258 7.1 111.693 7.32167 113 7.765C114.33 8.185 115.461 8.815 116.395 9.655C117.328 10.4717 118.051 11.4983 118.565 12.735C119.101 13.9483 119.37 15.3367 119.37 16.9C119.37 18.4867 119.101 19.8867 118.565 21.1C118.051 22.3133 117.328 23.34 116.395 24.18C115.461 24.9967 114.33 25.615 113 26.035C111.693 26.4783 110.258 26.7 108.695 26.7C107.108 26.7 105.661 26.4783 104.355 26.035C103.048 25.615 101.928 24.9967 100.995 24.18C100.061 23.34 99.3262 22.3133 98.7895 21.1C98.2762 19.8867 98.0195 18.4867 98.0195 16.9C98.0195 15.3367 98.2762 13.9483 98.7895 12.735C99.3262 11.4983 100.061 10.4717 100.995 9.655C101.928 8.815 103.048 8.185 104.355 7.765C105.661 7.32167 107.108 7.1 108.695 7.1ZM141.601 26H136.701V14.975C136.701 13.295 136.281 12.0933 135.441 11.37C134.601 10.6233 133.388 10.25 131.801 10.25H127.251V26H122.351V7.8H131.801C135.138 7.8 137.6 8.40667 139.186 9.62C140.796 10.81 141.601 12.595 141.601 14.975V26Z" fill="white"/>
</svg>
