<svg width="152" height="152" viewBox="0 0 152 152" fill="none" xmlns="http://www.w3.org/2000/svg">
<path d="M117.667 135.998C115.025 84.4402 36.975 84.4402 34.3333 135.998M151 76C151 117.421 117.421 151 76 151C34.5786 151 1 117.421 1 76C1 34.5786 34.5786 1 76 1C117.421 1 151 34.5786 151 76Z" stroke="#C2C2C2" stroke-width="2" stroke-linecap="round" stroke-linejoin="round"/>
<path d="M76.0013 72.6676C87.5072 72.6676 96.8346 63.3402 96.8346 51.8343C96.8346 40.3284 87.5072 31.001 76.0013 31.001C64.4954 31.001 55.168 40.3284 55.168 51.8343C55.168 63.3402 64.4954 72.6676 76.0013 72.6676Z" stroke="white" stroke-width="2" stroke-linecap="round" stroke-linejoin="round"/>
</svg>
